<svg xmlns="http://www.w3.org/2000/svg" xmlns:xlink="http://www.w3.org/1999/xlink" width="195" height="37" viewBox="0 0 195 37"><defs><style>.cls-1{isolation:isolate;}.cls-10,.cls-100,.cls-101,.cls-102,.cls-103,.cls-104,.cls-105,.cls-106,.cls-107,.cls-108,.cls-109,.cls-11,.cls-110,.cls-111,.cls-112,.cls-113,.cls-114,.cls-115,.cls-116,.cls-117,.cls-118,.cls-119,.cls-12,.cls-120,.cls-121,.cls-122,.cls-123,.cls-124,.cls-125,.cls-126,.cls-127,.cls-128,.cls-129,.cls-13,.cls-130,.cls-131,.cls-132,.cls-133,.cls-134,.cls-135,.cls-136,.cls-137,.cls-138,.cls-139,.cls-14,.cls-140,.cls-141,.cls-142,.cls-143,.cls-144,.cls-145,.cls-146,.cls-147,.cls-148,.cls-149,.cls-15,.cls-150,.cls-151,.cls-152,.cls-153,.cls-154,.cls-155,.cls-156,.cls-157,.cls-158,.cls-159,.cls-16,.cls-160,.cls-161,.cls-17,.cls-18,.cls-19,.cls-2,.cls-20,.cls-21,.cls-22,.cls-23,.cls-24,.cls-25,.cls-26,.cls-27,.cls-28,.cls-29,.cls-30,.cls-31,.cls-32,.cls-33,.cls-34,.cls-35,.cls-36,.cls-37,.cls-38,.cls-39,.cls-40,.cls-41,.cls-42,.cls-43,.cls-44,.cls-45,.cls-46,.cls-47,.cls-48,.cls-49,.cls-50,.cls-51,.cls-52,.cls-53,.cls-54,.cls-55,.cls-56,.cls-57,.cls-58,.cls-59,.cls-6,.cls-60,.cls-61,.cls-62,.cls-63,.cls-64,.cls-65,.cls-66,.cls-67,.cls-68,.cls-69,.cls-7,.cls-70,.cls-71,.cls-72,.cls-73,.cls-74,.cls-75,.cls-76,.cls-77,.cls-78,.cls-79,.cls-8,.cls-80,.cls-81,.cls-82,.cls-83,.cls-84,.cls-85,.cls-86,.cls-87,.cls-88,.cls-89,.cls-9,.cls-90,.cls-91,.cls-92,.cls-93,.cls-94,.cls-95,.cls-96,.cls-97,.cls-98,.cls-99{fill:#ff4c29;}.cls-3{fill:url(#linear-gradient);}.cls-4{fill:url(#linear-gradient-2);}.cls-5,.cls-7{mix-blend-mode:screen;}.cls-6{opacity:0.21;}.cls-8{opacity:0.9296;}.cls-9{opacity:0.6333;}.cls-10{opacity:0.6632;}.cls-11{opacity:0.6656;}.cls-12{opacity:0.8455;}.cls-13{opacity:0.9294;}.cls-14{opacity:0.632;}.cls-15{opacity:0.8453;}.cls-16{opacity:0.7825;}.cls-17{opacity:0.6663;}.cls-18{opacity:0.8454;}.cls-19{opacity:0.6621;}.cls-20{opacity:0.8455;}.cls-21{opacity:0.7826;}.cls-22{opacity:0.6333;}.cls-23{opacity:0.5992;}.cls-24{opacity:0.6003;}.cls-25{opacity:0.6321;}.cls-26{opacity:0.6326;}.cls-27{opacity:0.7829;}.cls-28{opacity:0.6979;}.cls-29{opacity:0.6967;}.cls-30{opacity:0.8451;}.cls-31{opacity:0.6319;}.cls-32{opacity:0.7829;}.cls-33{opacity:0.9295;}.cls-34{opacity:0.6645;}.cls-35{opacity:0.8453;}.cls-36{opacity:0.8456;}.cls-37{opacity:0.6643;}.cls-38{opacity:0.6637;}.cls-39{opacity:0.7827;}.cls-40{opacity:0.664;}.cls-41{opacity:0.9293;}.cls-42{opacity:0.6992;}.cls-43{opacity:0.8452;}.cls-44{opacity:0.6638;}.cls-45{opacity:0.6963;}.cls-46{opacity:0.666;}.cls-47{opacity:0.6637;}.cls-48{opacity:0.662;}.cls-49{opacity:0.5983;}.cls-50{opacity:0.5982;}.cls-51{opacity:0.7829;}.cls-52{opacity:0.6328;}.cls-53{opacity:0.7827;}.cls-54{opacity:0.6325;}.cls-55{opacity:0.6004;}.cls-56{opacity:0.6969;}.cls-57{opacity:0.6993;}.cls-58{opacity:0.6322;}.cls-59{opacity:0.6318;}.cls-60{opacity:0.6638;}.cls-61{opacity:0.7828;}.cls-62{opacity:0.6969;}.cls-63{opacity:0.8458;}.cls-64{opacity:0.8448;}.cls-65{opacity:0.6638;}.cls-66{opacity:0.8444;}.cls-67{opacity:0.844;}.cls-68{opacity:0.8467;}.cls-69{opacity:0.8455;}.cls-70{opacity:0.6636;}.cls-71{opacity:0.6319;}.cls-72{opacity:0.9293;}.cls-73{opacity:0.8455;}.cls-74{opacity:0.6639;}.cls-75{opacity:0.6649;}.cls-76{opacity:0.6974;}.cls-77{opacity:0.845;}.cls-78{opacity:0.6634;}.cls-79{opacity:0.9294;}.cls-80{opacity:0.6983;}.cls-81{opacity:0.8451;}.cls-82{opacity:0.783;}.cls-83{opacity:0.8452;}.cls-84{opacity:0.6328;}.cls-85{opacity:0.6648;}.cls-86{opacity:0.8444;}.cls-87{opacity:0.6628;}.cls-88{opacity:0.5989;}.cls-89{opacity:0.6977;}.cls-90{opacity:0.847;}.cls-91{opacity:0.6322;}.cls-92{opacity:0.783;}.cls-93{opacity:0.7826;}.cls-94{opacity:0.8449;}.cls-95{opacity:0.5995;}.cls-96{opacity:0.6314;}.cls-97{opacity:0.6639;}.cls-98{opacity:0.8454;}.cls-99{opacity:0.6634;}.cls-100{opacity:0.8454;}.cls-101{opacity:0.6321;}.cls-102{opacity:0.7826;}.cls-103{opacity:0.6324;}.cls-104{opacity:0.8453;}.cls-105{opacity:0.9291;}.cls-106{opacity:0.6636;}.cls-107{opacity:0.8449;}.cls-108{opacity:0.664;}.cls-109{opacity:0.632;}.cls-110{opacity:0.6319;}.cls-111{opacity:0.6643;}.cls-112{opacity:0.8457;}.cls-113{opacity:0.6635;}.cls-114{opacity:0.8453;}.cls-115{opacity:0.8457;}.cls-116{opacity:0.8455;}.cls-117{opacity:0.8454;}.cls-118{opacity:0.6638;}.cls-119{opacity:0.8467;}.cls-120{opacity:0.6319;}.cls-121{opacity:0.8456;}.cls-122{opacity:0.7833;}.cls-123{opacity:0.6637;}.cls-124{opacity:0.6316;}.cls-125{opacity:0.5988;}.cls-126{opacity:0.7827;}.cls-127{opacity:0.9295;}.cls-128{opacity:0.9296;}.cls-129{opacity:0.7826;}.cls-130{opacity:0.6319;}.cls-131{opacity:0.6637;}.cls-132{opacity:0.6319;}.cls-133{opacity:0.6637;}.cls-134{opacity:0.6633;}.cls-135{opacity:0.6636;}.cls-136{opacity:0.8452;}.cls-137{opacity:0.6634;}.cls-138{opacity:0.7827;}.cls-139{opacity:0.664;}.cls-140{opacity:0.6319;}.cls-141{opacity:0.664;}.cls-142{opacity:0.8455;}.cls-143{opacity:0.8459;}.cls-144{opacity:0.6639;}.cls-145{opacity:0.7824;}.cls-146{opacity:0.6319;}.cls-147{opacity:0.846;}.cls-148{opacity:0.7825;}.cls-149{opacity:0.6319;}.cls-150{opacity:0.5986;}.cls-151{opacity:0.5988;}.cls-152{opacity:0.783;}.cls-153{opacity:0.8453;}.cls-154{opacity:0.6638;}.cls-155{opacity:0.8454;}.cls-156{opacity:0.664;}.cls-157{opacity:0.7829;}.cls-158{opacity:0.8458;}.cls-159{opacity:0.8454;}.cls-160{opacity:0.6642;}.cls-161{opacity:0.6637;}</style><linearGradient id="linear-gradient" x1="4.1667" y1="7.077" x2="35.0226" y2="39.8154" gradientUnits="userSpaceOnUse"><stop offset="0" stop-color="#0f2a5f"/><stop offset="1" stop-color="#4d4d4d"/></linearGradient><linearGradient id="linear-gradient-2" x1="14.3861" y1="-2.5548" x2="45.242" y2="30.1836" xlink:href="#linear-gradient"/></defs><g class="cls-1"><g id="Layer_1" data-name="Layer 1"><path d="M64.8181,21.7327A4.4941,4.4941,0,0,1,65.857,24.81a4.211,4.211,0,0,1-1.71,3.6032,8.4986,8.4986,0,0,1-5.0761,1.2623H50.8656V11.265h7.68a7.7806,7.7806,0,0,1,4.6685,1.223,4.0613,4.0613,0,0,1,1.67,3.4847,4.23,4.23,0,0,1-.8285,2.6565,4.5732,4.5732,0,0,1-2.2487,1.5517A5.1055,5.1055,0,0,1,64.8181,21.7327Zm-12.6111-9.31V19.76h6.2859a6.3236,6.3236,0,0,0,3.7215-.9338,3.166,3.166,0,0,0,1.3018-2.7484,3.14,3.14,0,0,0-1.3018-2.7222,6.3259,6.3259,0,0,0-3.7215-.9335ZM63.1349,27.5847a3.2343,3.2343,0,0,0,1.3807-2.88,3.2015,3.2015,0,0,0-1.3807-2.8667,7.354,7.354,0,0,0-4.0635-.9205H52.207v7.6007h6.8644A7.2719,7.2719,0,0,0,63.1349,27.5847Z"/><path d="M75.3778,12.3038a.9951.9951,0,0,1-.3155-.75,1.0772,1.0772,0,0,1,1.0782-1.0781,1.0642,1.0642,0,0,1,.7628.3022.9969.9969,0,0,1,.3156.75,1.0774,1.0774,0,0,1-1.0784,1.0784A1.0617,1.0617,0,0,1,75.3778,12.3038Zm.1053,3.6429h1.3151V29.6755H75.4831Z"/><path d="M94.4192,28.8077a3.3029,3.3029,0,0,1-1.2491.7232,4.9228,4.9228,0,0,1-1.565.25,3.705,3.705,0,0,1-2.7616-.9864,3.7433,3.7433,0,0,1-.9731-2.7485V17.0774H85.3455V15.9467H87.87V12.9484h1.315v2.9983h4.366v1.1307h-4.366v8.8373a2.8994,2.8994,0,0,0,.6444,2.0381,2.4691,2.4691,0,0,0,1.9068.697,3.0513,3.0513,0,0,0,2.13-.7626Z"/><path class="cls-2" d="M115.039,25.0728h-9.7839L103.23,29.6755h-2.709l8.3374-18.41h2.6037l8.3637,18.4105h-2.7615Zm-.9205-2.1041-3.9716-9.0209-3.9714,9.0209Z"/><path class="cls-2" d="M128.0317,29.373a7.21,7.21,0,0,1-2.4724-1.17l1.0521-1.9989a7.5459,7.5459,0,0,0,2.2355,1.0521,9.2032,9.2032,0,0,0,2.6565.3945q3.314,0,3.3138-1.8936a1.2269,1.2269,0,0,0-.4471-.9995,2.84,2.84,0,0,0-1.1177-.5393q-.6708-.1707-1.9069-.3812a18.6459,18.6459,0,0,1-2.7484-.6049,4.23,4.23,0,0,1-1.8278-1.1574,3.2181,3.2181,0,0,1-.7628-2.288,3.5744,3.5744,0,0,1,1.578-3.0379,7.0683,7.0683,0,0,1,4.2344-1.144,11.674,11.674,0,0,1,2.7879.3421,7.5065,7.5065,0,0,1,2.2882.92l-1.0784,1.9989a7.25,7.25,0,0,0-4.024-1.1047,4.6515,4.6515,0,0,0-2.4459.526,1.5871,1.5871,0,0,0-.8416,1.3939,1.3289,1.3289,0,0,0,.4734,1.0784,2.9916,2.9916,0,0,0,1.17.5787q.6964.1842,1.9593.4207a21.34,21.34,0,0,1,2.7222.618,4.07,4.07,0,0,1,1.7753,1.1177,3.1159,3.1159,0,0,1,.7364,2.2094,3.4837,3.4837,0,0,1-1.6174,3.0113,7.6368,7.6368,0,0,1-4.4055,1.118A11.6807,11.6807,0,0,1,128.0317,29.373Z"/><path class="cls-2" d="M153.5957,28.86a3.7666,3.7666,0,0,1-1.3675.7233,5.7185,5.7185,0,0,1-1.6831.25,4.4694,4.4694,0,0,1-3.2615-1.131,4.3177,4.3177,0,0,1-1.1573-3.2351V17.8139h-2.367V15.7361h2.367V12.6852h2.5249v3.0509h3.9977v2.0778h-3.9977v7.5484a2.447,2.447,0,0,0,.5657,1.7357,2.1047,2.1047,0,0,0,1.6174.605,3.0416,3.0416,0,0,0,1.9725-.6576Z"/><path class="cls-2" d="M161.946,12.58a1.55,1.55,0,0,1-.4867-1.157,1.5953,1.5953,0,0,1,.4867-1.1706,1.6588,1.6588,0,0,1,1.223-.4864,1.7114,1.7114,0,0,1,1.223.46,1.5112,1.5112,0,0,1,.4864,1.1441,1.6267,1.6267,0,0,1-.4864,1.1966,1.6587,1.6587,0,0,1-1.223.4864A1.6812,1.6812,0,0,1,161.946,12.58Zm-.04,3.1562h2.5249V29.6755h-2.5249Z"/><path class="cls-2" d="M178.87,16.2358a7.0653,7.0653,0,0,1,3.13-.6312v2.4459a4.9878,4.9878,0,0,0-.5787-.0263,4.2482,4.2482,0,0,0-3.2218,1.223,4.8414,4.8414,0,0,0-1.17,3.485v6.9433h-2.5249V15.7361h2.42v2.3407A4.31,4.31,0,0,1,178.87,16.2358Z"/><path class="cls-3" d="M22.2264,17.09l-9.1431.7755c-.8418,7.2761,4.7723,15.6657,13.397,18.3176a13.7761,13.7761,0,0,1-6.4929-8.471C19.0191,23.89,20.366,20.54,22.2264,17.09Z"/><path class="cls-2" d="M22.5865,18.4423a2.98,2.98,0,0,1,.8438-1.0686c.42.0245.8512-.0822,1.2784-.0957a1.76,1.76,0,0,0,.52-.0385,10.4439,10.4439,0,0,0,8.0047-5.6566c.1326-.2395.2565-.4837.4876-.9209-.7577,6.1626-6.838,12.0615-12.7492,12.4746A13.2039,13.2039,0,0,1,22.5865,18.4423Z"/><path class="cls-2" d="M16.6774,8.5617a3.2915,3.2915,0,0,0-3.3666,3.321,3.711,3.711,0,0,0,3.6737,3.6813,3.2991,3.2991,0,0,0,3.3282-3.2819A3.72,3.72,0,0,0,16.6774,8.5617Z"/><path class="cls-4" d="M30.621,5.743a12.4278,12.4278,0,0,1-6.9192,10.5139,9.0649,9.0649,0,0,0,5.2459-1.1516,2.3936,2.3936,0,0,0,1.2616-1.5467A14.26,14.26,0,0,0,30.621,5.743Z"/><g class="cls-5"><polygon class="cls-6" points="37.174 4.443 36.071 5.352 35.005 6.267 37.174 4.443"/></g><g class="cls-5"><polygon class="cls-6" points="38.216 3.621 37.174 4.443 36.071 5.352 38.216 3.621"/></g><g class="cls-5"><polygon class="cls-6" points="37.217 7.203 36.071 5.352 34.489 3.94 37.217 7.203"/></g><g class="cls-5"><polygon class="cls-6" points="36.071 5.352 35.005 6.267 34.075 7.105 36.071 5.352"/></g><g class="cls-5"><polygon class="cls-6" points="38.497 6.547 37.174 4.443 35.386 2.81 38.497 6.547"/></g><g class="cls-5"><polygon class="cls-6" points="38.497 6.547 37.217 7.203 35.852 7.655 38.497 6.547"/></g><g class="cls-5"><polygon class="cls-6" points="35.852 7.655 35.005 6.267 33.814 5.227 35.852 7.655"/></g><g class="cls-5"><polygon class="cls-6" points="37.55 8.917 37.217 7.203 36.071 5.352 37.55 8.917"/></g><g class="cls-5"><polygon class="cls-6" points="39.571 5.745 38.497 6.547 37.217 7.203 39.571 5.745"/></g><g class="cls-5"><polygon class="cls-6" points="37.217 7.203 35.852 7.655 34.528 7.858 37.217 7.203"/></g><g class="cls-5"><polygon class="cls-6" points="35.386 2.81 34.489 3.94 33.814 5.227 35.386 2.81"/></g><g class="cls-5"><polygon class="cls-6" points="39.097 2.966 38.216 3.621 37.174 4.443 39.097 2.966"/></g><g class="cls-5"><polygon class="cls-6" points="36.062 8.934 35.852 7.655 35.005 6.267 36.062 8.934"/></g><g class="cls-5"><polygon class="cls-6" points="34.489 3.94 33.814 5.227 33.427 6.55 34.489 3.94"/></g><g class="cls-5"><polygon class="cls-6" points="36.071 5.352 34.489 3.94 32.964 3.445 36.071 5.352"/></g><g class="cls-5"><polygon class="cls-6" points="38.931 8.489 38.497 6.547 37.174 4.443 38.931 8.489"/></g><g class="cls-5"><polygon class="cls-6" points="36.422 1.948 35.386 2.81 34.489 3.94 36.422 1.948"/></g><g class="cls-5"><polygon class="cls-6" points="35.005 6.267 33.814 5.227 32.67 4.899 35.005 6.267"/></g><g class="cls-5"><polygon class="cls-6" points="39.571 5.745 38.216 3.621 36.422 1.948 39.571 5.745"/></g><g class="cls-5"><polygon class="cls-6" points="34.528 7.858 34.075 7.105 33.427 6.55 34.528 7.858"/></g><g class="cls-5"><polygon class="cls-6" points="37.174 4.443 35.386 2.81 33.673 2.189 37.174 4.443"/></g><g class="cls-5"><polygon class="cls-6" points="40.326 4.869 39.571 5.745 38.497 6.547 40.326 4.869"/></g><g class="cls-5"><polygon class="cls-6" points="34.621 8.543 34.528 7.858 34.075 7.105 34.621 8.543"/></g><g class="cls-5"><polygon class="cls-6" points="34.075 7.105 33.427 6.55 32.813 6.396 34.075 7.105"/></g><g class="cls-5"><polygon class="cls-6" points="40.057 7.683 39.571 5.745 38.216 3.621 40.057 7.683"/></g><g class="cls-5"><polygon class="cls-6" points="37.501 1.452 36.422 1.948 35.386 2.81 37.501 1.452"/></g><g class="cls-5"><polygon class="cls-6" points="39.716 2.558 39.097 2.966 38.216 3.621 39.716 2.558"/></g><g class="cls-5"><polygon class="cls-6" points="34.075 7.105 33.377 7.78 33.377 7.78 34.075 7.105"/></g><g class="cls-5"><polygon class="cls-6" points="37.55 8.917 36.062 8.934 34.621 8.543 37.55 8.917"/></g><g class="cls-5"><polygon class="cls-6" points="35.515 9.635 36.062 8.934 35.852 7.655 35.515 9.635"/></g><g class="cls-5"><polygon class="cls-6" points="34.528 7.858 33.377 7.78 33.377 7.78 34.528 7.858"/></g><g class="cls-5"><polygon class="cls-6" points="38.216 3.621 36.422 1.948 34.731 1.278 38.216 3.621"/></g><g class="cls-5"><polygon class="cls-6" points="34.308 8.903 34.621 8.543 34.528 7.858 34.308 8.903"/></g><g class="cls-5"><polygon class="cls-6" points="33.427 6.55 33.377 7.78 33.377 7.78 33.427 6.55"/></g><g class="cls-5"><polygon class="cls-6" points="38.931 8.489 37.55 8.917 36.062 8.934 38.931 8.489"/></g><g class="cls-5"><polygon class="cls-6" points="33.427 6.55 32.813 6.396 32.464 6.718 33.427 6.55"/></g><g class="cls-5"><polygon class="cls-6" points="36.873 9.876 37.55 8.917 37.217 7.203 36.873 9.876"/></g><g class="cls-5"><polygon class="cls-6" points="34.621 8.543 33.377 7.78 33.377 7.78 34.621 8.543"/></g><g class="cls-5"><polygon class="cls-6" points="32.67 4.899 32.813 6.396 33.377 7.78 32.67 4.899"/></g><g class="cls-5"><polygon class="cls-6" points="40.326 4.869 39.097 2.966 37.501 1.452 40.326 4.869"/></g><g class="cls-5"><polygon class="cls-6" points="33.814 5.227 32.67 4.899 31.998 5.461 33.814 5.227"/></g><g class="cls-5"><polygon class="cls-6" points="32.964 3.445 32.67 4.899 32.813 6.396 32.964 3.445"/></g><g class="cls-5"><polygon class="cls-6" points="40.66 4.008 40.326 4.869 39.571 5.745 40.66 4.008"/></g><g class="cls-5"><polygon class="cls-6" points="34.308 8.903 33.377 7.78 33.377 7.78 34.308 8.903"/></g><g class="cls-5"><polygon class="cls-6" points="40.057 7.683 38.931 8.489 37.55 8.917 40.057 7.683"/></g><g class="cls-5"><polygon class="cls-6" points="33.673 2.189 32.964 3.445 32.67 4.899 33.673 2.189"/></g><g class="cls-5"><polygon class="cls-6" points="34.489 3.94 32.964 3.445 32.055 4.146 34.489 3.94"/></g><g class="cls-5"><polygon class="cls-6" points="38.226 9.575 38.931 8.489 38.497 6.547 38.226 9.575"/></g><g class="cls-5"><polygon class="cls-6" points="38.508 1.398 37.501 1.452 36.422 1.948 38.508 1.398"/></g><g class="cls-5"><polygon class="cls-6" points="40.789 6.573 40.326 4.869 39.097 2.966 40.789 6.573"/></g><g class="cls-5"><polygon class="cls-6" points="34.308 8.903 34.621 8.543 33.689 8.783 34.308 8.903"/></g><g class="cls-5"><polygon class="cls-6" points="32.813 6.396 32.464 6.718 32.531 7.413 32.813 6.396"/></g><g class="cls-5"><polygon class="cls-6" points="39.097 2.966 37.501 1.452 36.033 0.832 39.097 2.966"/></g><g class="cls-5"><polygon class="cls-6" points="31.998 5.461 32.464 6.718 33.377 7.78 31.998 5.461"/></g><g class="cls-5"><polygon class="cls-6" points="34.731 1.278 33.673 2.189 32.964 3.445 34.731 1.278"/></g><g class="cls-5"><polygon class="cls-6" points="35.386 2.81 33.673 2.189 32.66 2.93 35.386 2.81"/></g><g class="cls-5"><polygon class="cls-6" points="40.789 6.573 40.057 7.683 38.931 8.489 40.789 6.573"/></g><g class="cls-5"><polygon class="cls-6" points="39.98 2.465 39.716 2.558 39.097 2.966 39.98 2.465"/></g><g class="cls-5"><polygon class="cls-6" points="35.515 9.635 36.062 8.934 34.355 9.425 35.515 9.635"/></g><g class="cls-5"><polygon class="cls-6" points="39.404 8.74 40.057 7.683 39.571 5.745 39.404 8.74"/></g><g class="cls-5"><polygon class="cls-6" points="34.308 8.903 33.002 8.21 33.689 8.783 34.308 8.903"/></g><g class="cls-5"><polygon class="cls-6" points="36.873 9.876 35.515 9.635 34.308 8.903 36.873 9.876"/></g><g class="cls-5"><polygon class="cls-6" points="32.464 6.718 32.531 7.413 33.002 8.21 32.464 6.718"/></g><g class="cls-5"><polygon class="cls-6" points="34.355 9.425 33.689 8.783 33.377 7.78 34.355 9.425"/></g><g class="cls-5"><polygon class="cls-6" points="40.66 4.008 39.716 2.558 38.508 1.398 40.66 4.008"/></g><g class="cls-5"><polygon class="cls-6" points="40.499 3.26 40.66 4.008 40.326 4.869 40.499 3.26"/></g><g class="cls-5"><polygon class="cls-6" points="32.67 4.899 31.998 5.461 32.114 6.772 32.67 4.899"/></g><g class="cls-5"><polygon class="cls-6" points="32.114 6.772 32.531 7.413 33.377 7.78 32.114 6.772"/></g><g class="cls-5"><polygon class="cls-6" points="32.531 7.413 33.002 8.21 33.689 8.783 32.531 7.413"/></g><g class="cls-5"><polygon class="cls-6" points="36.033 0.832 34.731 1.278 33.673 2.189 36.033 0.832"/></g><g class="cls-5"><polygon class="cls-6" points="32.055 4.146 31.998 5.461 32.464 6.718 32.055 4.146"/></g><g class="cls-5"><polygon class="cls-6" points="36.422 1.948 34.731 1.278 33.763 1.978 36.422 1.948"/></g><g class="cls-5"><polygon class="cls-6" points="39.32 1.829 38.508 1.398 37.501 1.452 39.32 1.829"/></g><g class="cls-5"><polygon class="cls-6" points="33.029 8.318 33.002 8.21 33.377 7.78 33.029 8.318"/></g><g class="cls-5"><polygon class="cls-6" points="41.02 5.272 40.66 4.008 39.716 2.558 41.02 5.272"/></g><g class="cls-5"><polygon class="cls-6" points="41.02 5.272 40.789 6.573 40.057 7.683 41.02 5.272"/></g><g class="cls-5"><polygon class="cls-6" points="36.873 9.876 37.55 8.917 35.324 9.596 36.873 9.876"/></g><g class="cls-5"><polygon class="cls-6" points="39.716 2.558 38.508 1.398 37.431 0.928 39.716 2.558"/></g><g class="cls-5"><polygon class="cls-6" points="40.245 7.457 40.789 6.573 40.326 4.869 40.245 7.457"/></g><g class="cls-5"><polygon class="cls-6" points="38.226 9.575 36.873 9.876 35.515 9.635 38.226 9.575"/></g><g class="cls-5"><polygon class="cls-6" points="37.431 0.928 36.033 0.832 34.731 1.278 37.431 0.928"/></g><g class="cls-5"><polygon class="cls-6" points="32.964 3.445 32.055 4.146 32.22 5.913 32.964 3.445"/></g><g class="cls-5"><polygon class="cls-6" points="35.515 9.635 33.029 8.318 34.355 9.425 35.515 9.635"/></g><g class="cls-5"><polygon class="cls-6" points="37.501 1.452 36.033 0.832 35.239 1.431 37.501 1.452"/></g><g class="cls-5"><polygon class="cls-6" points="32.66 2.93 32.055 4.146 31.998 5.461 32.66 2.93"/></g><g class="cls-5"><polygon class="cls-6" points="31.998 5.461 32.114 6.772 33.029 8.318 31.998 5.461"/></g><g class="cls-5"><polygon class="cls-6" points="39.818 2.731 39.98 2.465 39.716 2.558 39.818 2.731"/></g><g class="cls-5"><polygon class="cls-6" points="35.324 9.596 34.355 9.425 33.689 8.783 35.324 9.596"/></g><g class="cls-5"><polygon class="cls-6" points="38.226 9.575 38.931 8.489 36.49 9.232 38.226 9.575"/></g><g class="cls-5"><polygon class="cls-6" points="40.692 3.934 41.02 5.272 40.789 6.573 40.692 3.934"/></g><g class="cls-5"><polygon class="cls-6" points="39.404 8.74 38.226 9.575 36.873 9.876 39.404 8.74"/></g><g class="cls-5"><polygon class="cls-6" points="40.499 3.26 39.98 2.465 39.32 1.829 40.499 3.26"/></g><g class="cls-5"><polygon class="cls-6" points="39.818 2.731 40.499 3.26 40.66 4.008 39.818 2.731"/></g><g class="cls-5"><polygon class="cls-6" points="40.622 5.885 41.02 5.272 40.66 4.008 40.622 5.885"/></g><g class="cls-5"><polygon class="cls-6" points="32.22 5.913 32.114 6.772 32.531 7.413 32.22 5.913"/></g><g class="cls-5"><polygon class="cls-6" points="32.114 6.772 33.029 8.318 34.355 9.425 32.114 6.772"/></g><g class="cls-5"><polygon class="cls-6" points="40.692 3.934 40.499 3.26 39.98 2.465 40.692 3.934"/></g><g class="cls-5"><polygon class="cls-6" points="38.753 1.582 37.431 0.928 36.033 0.832 38.753 1.582"/></g><g class="cls-5"><polygon class="cls-6" points="39.98 2.465 39.32 1.829 38.753 1.582 39.98 2.465"/></g><g class="cls-5"><polygon class="cls-6" points="33.673 2.189 32.66 2.93 32.879 4.936 33.673 2.189"/></g><g class="cls-5"><polygon class="cls-6" points="38.508 1.398 37.431 0.928 36.893 1.379 38.508 1.398"/></g><g class="cls-5"><polygon class="cls-6" points="33.495 8.058 33.029 8.318 33.002 8.21 33.495 8.058"/></g><g class="cls-5"><polygon class="cls-6" points="33.763 1.978 32.66 2.93 32.055 4.146 33.763 1.978"/></g><g class="cls-5"><polygon class="cls-6" points="39.404 8.74 40.057 7.683 37.699 8.35 39.404 8.74"/></g><g class="cls-5"><polygon class="cls-6" points="40.245 7.457 39.404 8.74 38.226 9.575 40.245 7.457"/></g><g class="cls-5"><polygon class="cls-6" points="39.818 2.731 40.692 3.934 41.02 5.272 39.818 2.731"/></g><g class="cls-5"><polygon class="cls-6" points="36.873 9.876 33.495 8.058 35.324 9.596 36.873 9.876"/></g><g class="cls-5"><polygon class="cls-6" points="40.473 4.233 40.692 3.934 40.499 3.26 40.473 4.233"/></g><g class="cls-5"><polygon class="cls-6" points="39.32 1.829 38.753 1.582 38.494 1.835 39.32 1.829"/></g><g class="cls-5"><polygon class="cls-6" points="39.818 2.731 39.818 2.731 39.32 1.829 39.818 2.731"/></g><g class="cls-5"><polygon class="cls-6" points="32.055 4.146 32.22 5.913 33.495 8.058 32.055 4.146"/></g><g class="cls-5"><polygon class="cls-6" points="36.49 9.232 35.324 9.596 34.355 9.425 36.49 9.232"/></g><g class="cls-5"><polygon class="cls-6" points="34.731 1.278 33.763 1.978 34.037 3.974 34.731 1.278"/></g><g class="cls-5"><polygon class="cls-6" points="40.245 7.457 40.789 6.573 38.773 7.054 40.245 7.457"/></g><g class="cls-5"><polygon class="cls-6" points="40.622 5.885 40.245 7.457 39.404 8.74 40.622 5.885"/></g><g class="cls-5"><polygon class="cls-6" points="35.239 1.431 33.763 1.978 32.66 2.93 35.239 1.431"/></g><g class="cls-5"><polygon class="cls-6" points="39.818 2.731 39.818 2.731 38.753 1.582 39.818 2.731"/></g><g class="cls-5"><polygon class="cls-6" points="32.879 4.936 32.22 5.913 32.114 6.772 32.879 4.936"/></g><g class="cls-5"><polygon class="cls-6" points="40.473 4.233 40.622 5.885 40.245 7.457 40.473 4.233"/></g><g class="cls-5"><polygon class="cls-6" points="40.622 5.885 41.02 5.272 39.547 5.534 40.622 5.885"/></g><g class="cls-5"><polygon class="cls-6" points="32.22 5.913 33.495 8.058 35.324 9.596 32.22 5.913"/></g><g class="cls-5"><polygon class="cls-6" points="39.818 2.731 40.473 4.233 40.622 5.885 39.818 2.731"/></g><g class="cls-5"><polygon class="cls-6" points="39.818 2.731 39.818 2.731 38.494 1.835 39.818 2.731"/></g><g class="cls-5"><polygon class="cls-6" points="36.033 0.832 35.239 1.431 35.542 3.174 36.033 0.832"/></g><g class="cls-5"><polygon class="cls-6" points="40.473 4.233 40.692 3.934 39.907 4.02 40.473 4.233"/></g><g class="cls-5"><polygon class="cls-6" points="36.893 1.379 35.239 1.431 33.763 1.978 36.893 1.379"/></g><g class="cls-5"><polygon class="cls-6" points="39.818 2.731 39.818 2.731 39.907 4.02 39.818 2.731"/></g><g class="cls-5"><polygon class="cls-6" points="38.753 1.582 38.494 1.835 38.663 2.514 38.753 1.582"/></g><g class="cls-5"><polygon class="cls-6" points="38.226 9.575 34.378 7.427 36.49 9.232 38.226 9.575"/></g><g class="cls-5"><polygon class="cls-6" points="39.818 2.731 39.818 2.731 38.663 2.514 39.818 2.731"/></g><g class="cls-5"><polygon class="cls-6" points="37.431 0.928 36.893 1.379 37.167 2.663 37.431 0.928"/></g><g class="cls-5"><polygon class="cls-6" points="38.494 1.835 36.893 1.379 35.239 1.431 38.494 1.835"/></g><g class="cls-5"><polygon class="cls-6" points="39.818 2.731 39.818 2.731 39.207 3.359 39.818 2.731"/></g><g class="cls-5"><polygon class="cls-6" points="34.378 7.427 33.495 8.058 33.029 8.318 34.378 7.427"/></g><g class="cls-5"><polygon class="cls-6" points="37.699 8.35 36.49 9.232 35.324 9.596 37.699 8.35"/></g><g class="cls-5"><polygon class="cls-6" points="32.66 2.93 32.879 4.936 34.378 7.427 32.66 2.93"/></g><g class="cls-5"><polygon class="cls-6" points="40.473 4.233 39.207 3.359 39.907 4.02 40.473 4.233"/></g><g class="cls-5"><polygon class="cls-6" points="38.494 1.835 38.663 2.514 39.207 3.359 38.494 1.835"/></g><g class="cls-5"><polygon class="cls-6" points="34.037 3.974 32.879 4.936 32.22 5.913 34.037 3.974"/></g><g class="cls-5"><polygon class="cls-6" points="39.404 8.74 35.58 6.493 37.699 8.35 39.404 8.74"/></g><g class="cls-5"><polygon class="cls-6" points="38.663 2.514 39.207 3.359 39.907 4.02 38.663 2.514"/></g><g class="cls-5"><polygon class="cls-6" points="32.879 4.936 34.378 7.427 36.49 9.232 32.879 4.936"/></g><g class="cls-5"><polygon class="cls-6" points="40.622 5.885 38.198 4.286 39.547 5.534 40.622 5.885"/></g><g class="cls-5"><polygon class="cls-6" points="38.773 7.054 37.699 8.35 36.49 9.232 38.773 7.054"/></g><g class="cls-5"><polygon class="cls-6" points="33.763 1.978 34.037 3.974 35.58 6.493 33.763 1.978"/></g><g class="cls-5"><polygon class="cls-6" points="40.245 7.457 36.924 5.388 38.773 7.054 40.245 7.457"/></g><g class="cls-5"><polygon class="cls-6" points="39.907 4.02 39.547 5.534 38.773 7.054 39.907 4.02"/></g><g class="cls-5"><polygon class="cls-6" points="36.893 1.379 37.167 2.663 38.198 4.286 36.893 1.379"/></g><g class="cls-5"><polygon class="cls-6" points="35.58 6.493 34.378 7.427 33.495 8.058 35.58 6.493"/></g><g class="cls-5"><polygon class="cls-6" points="39.547 5.534 38.773 7.054 37.699 8.35 39.547 5.534"/></g><g class="cls-5"><polygon class="cls-6" points="38.663 2.514 37.167 2.663 35.542 3.174 38.663 2.514"/></g><g class="cls-5"><polygon class="cls-6" points="35.542 3.174 34.037 3.974 32.879 4.936 35.542 3.174"/></g><g class="cls-5"><polygon class="cls-6" points="35.239 1.431 35.542 3.174 36.924 5.388 35.239 1.431"/></g><g class="cls-5"><polygon class="cls-6" points="37.167 2.663 38.198 4.286 39.547 5.534 37.167 2.663"/></g><g class="cls-5"><polygon class="cls-6" points="37.167 2.663 35.542 3.174 34.037 3.974 37.167 2.663"/></g><g class="cls-5"><polygon class="cls-6" points="34.037 3.974 35.58 6.493 37.699 8.35 34.037 3.974"/></g><g class="cls-5"><polygon class="cls-6" points="39.207 3.359 38.198 4.286 36.924 5.388 39.207 3.359"/></g><g class="cls-5"><polygon class="cls-6" points="35.542 3.174 36.924 5.388 38.773 7.054 35.542 3.174"/></g><g class="cls-5"><polygon class="cls-6" points="36.924 5.388 35.58 6.493 34.378 7.427 36.924 5.388"/></g><g class="cls-5"><polygon class="cls-6" points="38.198 4.286 36.924 5.388 35.58 6.493 38.198 4.286"/></g><path class="cls-7" d="M37.1644,4.4316l-1.1029.9091a.0144.0144,0,0,0,.0183.0223l1.1029-.9091a.0144.0144,0,1,0-.0183-.0223Z"/><path class="cls-7" d="M36.0613,5.3409l-1.0654.9149a.0144.0144,0,0,0,.0188.0218h0L36.08,5.3628a.0144.0144,0,0,0-.0187-.0219Z"/><g class="cls-5"><path class="cls-8" d="M37.229,7.1954,36.0829,5.3443a.0144.0144,0,0,0-.0245.0151l1.1461,1.8512a.0144.0144,0,0,0,.0245-.0152Z"/></g><g class="cls-5"><path class="cls-9" d="M37.1643,4.4317,34.996,6.2557a.0145.0145,0,0,0-.0017.02.0143.0143,0,0,0,.02.0017l2.1682-1.8239a.0144.0144,0,1,0-.0185-.0221Z"/></g><g class="cls-5"><path class="cls-10" d="M37.1591,4.443l.0432,2.76a.0144.0144,0,0,0,.0288,0l-.0432-2.76a.0144.0144,0,0,0-.0288,0Z"/></g><g class="cls-5"><path class="cls-11" d="M38.5032,6.534,36.077,5.3389a.0144.0144,0,0,0-.0127.0259L38.4905,6.56a.0144.0144,0,0,0,.0127-.0258Z"/></g><g class="cls-5"><path class="cls-12" d="M36.0563,5.3505l-.219,2.3031a.0144.0144,0,0,0,.0286.0027l.2191-2.3031a.0144.0144,0,0,0-.0287-.0027Z"/></g><g class="cls-5"><path class="cls-13" d="M36.08,5.3411,34.4986,3.9292a.0144.0144,0,0,0-.02.0016.0147.0147,0,0,0,.0011.02l1.5817,1.4119a.0144.0144,0,0,0,.0192-.0215Z"/></g><g class="cls-5"><path class="cls-14" d="M38.2067,3.61,36.0616,5.3406a.0144.0144,0,0,0,.0181.0225l2.1451-1.7312a.0144.0144,0,0,0-.0181-.0224Z"/></g><g class="cls-5"><path class="cls-15" d="M37.2223,7.19l-2.2114-.9363A.0144.0144,0,0,0,35,6.28l2.2114.9363a.0144.0144,0,0,0,.0112-.0266Z"/></g><g class="cls-5"><path class="cls-16" d="M38.509,6.5392,37.1857,4.4351a.0144.0144,0,0,0-.0243.0153l1.3232,2.1042a.0146.0146,0,0,0,.02.0042A.0144.0144,0,0,0,38.509,6.5392Z"/></g><g class="cls-5"><path class="cls-17" d="M37.1762,4.4286l-2.6845-.5028a.0144.0144,0,0,0-.0053.0283l2.6845.5028a.0144.0144,0,1,0,.0053-.0283Z"/></g><g class="cls-5"><path class="cls-18" d="M36.0715,5.3375l-2.2568-.1253a.0144.0144,0,0,0-.0016.0288l2.2568.1252a.0144.0144,0,0,0,.0016-.0287Z"/></g><path class="cls-7" d="M38.2068,3.6094l-1.0422.822a.0144.0144,0,1,0,.0179.0226h0l1.0421-.822a.0144.0144,0,0,0-.0178-.0226Z"/><g class="cls-5"><path class="cls-19" d="M35.372,2.8141l.6848,2.5415a.0144.0144,0,0,0,.0176.01.0145.0145,0,0,0,.01-.0177L35.4,2.8066a.0144.0144,0,1,0-.0278.0075Z"/></g><path class="cls-7" d="M35.8639,7.6475l-.8463-1.3883a.0144.0144,0,0,0-.0246.015l.8463,1.3883a.0144.0144,0,0,0,.0246-.015Z"/><g class="cls-5"><path class="cls-20" d="M34.475,3.943,34.9913,6.27a.0144.0144,0,0,0,.0281-.0062l-.5163-2.3268a.0144.0144,0,0,0-.0281.0062Z"/></g><g class="cls-5"><path class="cls-21" d="M37.1833,4.4321,35.3956,2.8a.0144.0144,0,1,0-.0194.0213l1.7876,1.6324a.0144.0144,0,0,0,.02-.0213Z"/></g><path class="cls-7" d="M38.49,6.5341,37.21,7.19a.0144.0144,0,0,0,.0132.0256l1.28-.6561a.0144.0144,0,0,0-.0131-.0256Z"/><path class="cls-7" d="M37.2122,7.1893l-1.3651.452a.0144.0144,0,0,0,.009.0273l1.3652-.4519a.0144.0144,0,0,0-.0091-.0274Z"/><path class="cls-7" d="M35.0148,6.2559l-1.1914-1.04a.0144.0144,0,0,0-.019.0217l1.1915,1.04a.0144.0144,0,0,0,.0189-.0217Z"/><g class="cls-5"><path class="cls-22" d="M38.4913,6.5336,35.846,7.6417a.0144.0144,0,1,0,.0112.0265L38.5024,6.56a.0144.0144,0,0,0-.0111-.0266Z"/></g><g class="cls-5"><path class="cls-23" d="M38.2014,3.6221l.2811,2.9262a.0144.0144,0,0,0,.0287-.0028L38.23,3.6194a.0144.0144,0,1,0-.0286.0027Z"/></g><path class="cls-7" d="M34.9957,6.256l-.93.8378a.0144.0144,0,1,0,.0193.0214h0l.93-.8378a.0144.0144,0,0,0-.0193-.0214Z"/><path class="cls-7" d="M34.4763,3.9332,33.8012,5.22a.0144.0144,0,0,0,.0255.0134l.6751-1.2867a.0144.0144,0,0,0-.0255-.0134Z"/><path class="cls-7" d="M34.9915,6.2626l-.4776,1.5908a.0144.0144,0,1,0,.0276.0083h0l.4776-1.5908a.0144.0144,0,0,0-.0276-.0083Z"/><path class="cls-7" d="M35.3746,2.8014l-.8968,1.13a.0144.0144,0,0,0,.0225.0179l.8969-1.13a.0144.0144,0,0,0-.0226-.0179Z"/><g class="cls-5"><path class="cls-24" d="M36.4087,1.9526,37.16,4.4469a.0144.0144,0,1,0,.0275-.0083h0l-.7511-2.4943a.0144.0144,0,0,0-.0275.0083Z"/></g><path class="cls-7" d="M35.0028,6.2525l-1.5785.2832a.0144.0144,0,0,0,.005.0283l1.5786-.2831a.0144.0144,0,0,0-.0051-.0284Z"/><g class="cls-5"><path class="cls-25" d="M39.5636,5.7327,37.2091,7.1908a.0144.0144,0,1,0,.0152.0244l2.3545-1.458a.0144.0144,0,0,0-.0152-.0245Z"/></g><path class="cls-7" d="M35.8559,7.6412l-1.7767-.55a.0144.0144,0,0,0-.0085.0275l1.7766.55a.0144.0144,0,1,0,.0086-.0275Z"/><g class="cls-5"><path class="cls-26" d="M35.3738,2.8025l-1.572,2.4162a.0144.0144,0,0,0,.0242.0157l1.5719-2.4162a.0144.0144,0,1,0-.0241-.0157Z"/></g><path class="cls-7" d="M39.5626,5.7334l-1.0744.8019a.0144.0144,0,0,0,.0173.0231L39.58,5.7565a.0144.0144,0,0,0-.0172-.0231Z"/><path class="cls-7" d="M35.8494,7.6407l-1.3238.2026a.0144.0144,0,1,0,.0043.0285l1.3239-.2026a.0144.0144,0,0,0-.0044-.0285Z"/><path class="cls-7" d="M33.8,5.2286l.2611,1.8779a.0144.0144,0,1,0,.0285-.004l-.261-1.8779a.0144.0144,0,1,0-.0286.004Z"/><g class="cls-5"><path class="cls-27" d="M39.5834,5.7372,38.2278,3.613a.0144.0144,0,1,0-.0242.0155l1.3555,2.1242a.0144.0144,0,0,0,.0243-.0155Z"/></g><g class="cls-5"><path class="cls-28" d="M33.8,5.23l.7138,2.631a.0144.0144,0,0,0,.0278-.0076l-.7138-2.631A.0144.0144,0,0,0,33.8,5.23Z"/></g><g class="cls-5"><path class="cls-29" d="M34.9911,6.2643,34.6071,8.54a.0144.0144,0,0,0,.0284.0048h0l.384-2.2759a.0144.0144,0,1,0-.0284-.0048Z"/></g><g class="cls-5"><path class="cls-30" d="M37.2047,7.195,36.05,8.926a.0144.0144,0,0,0,.024.016l1.1549-1.731a.0144.0144,0,1,0-.024-.016Z"/></g><path class="cls-7" d="M33.8,5.2225,33.413,6.5458a.0144.0144,0,0,0,.0276.0081l.3871-1.3233A.0144.0144,0,0,0,33.8,5.2225Z"/><g class="cls-5"><path class="cls-31" d="M36.4121,1.9384,34.4787,3.93a.0144.0144,0,1,0,.0207.02l1.9334-1.9914a.0144.0144,0,0,0-.0207-.02Z"/></g><g class="cls-5"><path class="cls-32" d="M38.2255,3.61,36.4323,1.9379a.0144.0144,0,1,0-.02.0211l1.7933,1.6723a.0145.0145,0,0,0,.02-.0013A.0143.0143,0,0,0,38.2255,3.61Z"/></g><path class="cls-7" d="M34.54,7.85l-.4528-.7531a.0144.0144,0,0,0-.0247.0148h0l.4528.7531A.0144.0144,0,0,0,34.54,7.85Z"/><g class="cls-5"><path class="cls-33" d="M37.5637,8.9143,37.2308,7.2a.0144.0144,0,0,0-.0282.0055L37.5354,8.92a.0144.0144,0,0,0,.0283-.0055Z"/></g><path class="cls-7" d="M36.076,8.9316l-.21-1.279a.0144.0144,0,0,0-.0284.0047l.21,1.279a.0144.0144,0,1,0,.0284-.0047Z"/><path class="cls-7" d="M34.0843,7.0936l-.6481-.5547a.0144.0144,0,0,0-.0188.0219l.6482.5547a.0145.0145,0,0,0,.02-.0016.0143.0143,0,0,0-.0016-.02Z"/><path class="cls-7" d="M39.0884,2.9549l-.8813.6543a.0144.0144,0,1,0,.0172.0231l.8813-.6542a.0144.0144,0,0,0-.0172-.0232Z"/><path class="cls-7" d="M36.4132,1.9374l-1.0365.8618a.0144.0144,0,0,0,.0184.0222L36.4317,1.96a.0144.0144,0,0,0-.0185-.0221Z"/><path class="cls-7" d="M35.8432,7.6433l-1.23.8876a.0144.0144,0,1,0,.0168.0234h0l1.23-.8877a.0144.0144,0,1,0-.0168-.0233Z"/><g class="cls-5"><path class="cls-34" d="M38.4835,6.5416l-.9473,2.37a.0143.0143,0,0,0,.008.0187.0144.0144,0,0,0,.0188-.008l.9472-2.37a.0144.0144,0,1,0-.0267-.0106Z"/></g><g class="cls-5"><path class="cls-35" d="M37.5582,8.9055,35.86,7.6434a.0144.0144,0,1,0-.0172.0231h0l1.698,1.2621a.0144.0144,0,0,0,.0172-.0231Z"/></g><g class="cls-5"><path class="cls-36" d="M34.4823,3.9272l-1.8193.9592a.0144.0144,0,0,0,.0134.0255l1.8194-.9592a.0144.0144,0,0,0-.0135-.0255Z"/></g><g class="cls-5"><path class="cls-37" d="M38.94,8.4773,37.2254,7.1915a.0144.0144,0,1,0-.0173.023L38.9228,8.5a.0144.0144,0,0,0,.0172-.023Z"/></g><path class="cls-7" d="M33.803,5.2172l-1.0013,1.17a.0144.0144,0,0,0,.0218.0188l1.0013-1.17a.0145.0145,0,0,0-.0022-.02A.0143.0143,0,0,0,33.803,5.2172Z"/><path class="cls-7" d="M33.8179,5.2127l-1.1442-.3274a.0144.0144,0,0,0-.0079.0277L33.81,5.24a.0144.0144,0,0,0,.008-.0277Z"/><g class="cls-5"><path class="cls-38" d="M40.3333,4.8571l-2.11-1.2488a.0144.0144,0,0,0-.0146.0248l2.11,1.2488a.0144.0144,0,0,0,.0146-.0248Z"/></g><g class="cls-5"><path class="cls-39" d="M38.9454,8.4857l-.4345-1.9419a.0144.0144,0,0,0-.0281.0062l.4346,1.942a.0144.0144,0,0,0,.028-.0063Z"/></g><g class="cls-5"><path class="cls-40" d="M39.0828,2.9689l.4742,2.7785a.0144.0144,0,0,0,.0169.0114.0143.0143,0,0,0,.0115-.0163l-.4742-2.7784a.0144.0144,0,0,0-.0284.0048Z"/></g><path class="cls-7" d="M36.07,8.9222,34.536,7.8458a.0144.0144,0,0,0-.0165.0236l1.534,1.0764a.0144.0144,0,0,0,.0166-.0236Z"/><g class="cls-5"><path class="cls-41" d="M34.4935,3.9262l-1.525-.4952a.0144.0144,0,0,0-.0089.0274l1.525.4952a.0144.0144,0,0,0,.0089-.0274Z"/></g><path class="cls-7" d="M34.6356,8.5407l-.0936-.6851a.0144.0144,0,0,0-.0166-.0118.0142.0142,0,0,0-.0119.0157l.0935.6851a.0144.0144,0,0,0,.0286-.0039Z"/><g class="cls-5"><path class="cls-42" d="M32.6576,4.9069l1.4052,2.2054a.0144.0144,0,0,0,.0243-.0155L32.6819,4.8914a.0144.0144,0,1,0-.0243.0155Z"/></g><g class="cls-5"><path class="cls-43" d="M32.9511,3.4509l.85,1.7819a.0144.0144,0,0,0,.026-.0124l-.85-1.7819a.0145.0145,0,0,0-.0192-.0068A.0143.0143,0,0,0,32.9511,3.4509Z"/></g><g class="cls-5"><path class="cls-44" d="M37.4872,1.4566l.7148,2.1686a.0144.0144,0,0,0,.0274-.009l-.7148-2.1686a.0144.0144,0,0,0-.0274.009Z"/></g><g class="cls-5"><path class="cls-45" d="M35.8425,7.6438,34.2985,8.892a.0144.0144,0,1,0,.0181.0223l1.5441-1.2481a.0144.0144,0,1,0-.0182-.0224Z"/></g><g class="cls-5"><path class="cls-46" d="M35.3822,2.7964,32.96,3.4308a.0144.0144,0,1,0,.0073.0278L35.39,2.8242a.0144.0144,0,0,0-.0073-.0278Z"/></g><g class="cls-5"><path class="cls-47" d="M39.1021,2.953,36.4276,1.935a.0144.0144,0,1,0-.01.0269L39.0919,2.98a.0142.0142,0,0,0,.0184-.0085A.0144.0144,0,0,0,39.1021,2.953Z"/></g><path class="cls-7" d="M34.0649,7.0942l-.6984.6758a.0144.0144,0,1,0,.02.0207l.6985-.6758a.0144.0144,0,0,0-.02-.0207Z"/><path class="cls-7" d="M33.43,6.5359l-.6142-.1535a.0144.0144,0,1,0-.007.028l.6142.1534a.0144.0144,0,0,0,.007-.0279Z"/><path class="cls-7" d="M32.6566,4.9051l.7571,1.6508a.0144.0144,0,0,0,.0262-.012l-.7571-1.6508a.0144.0144,0,1,0-.0262.012Z"/><path class="cls-7" d="M40.3151,4.86l-.7548.8754a.0145.0145,0,0,0,.0015.02.0143.0143,0,0,0,.02-.0016l.7548-.8754a.0144.0144,0,0,0-.0218-.0188Z"/><path class="cls-7" d="M34.5287,7.8432,33.3775,7.766a.0144.0144,0,0,0-.002.0287l1.1513.0773a.0144.0144,0,0,0,.0019-.0288Z"/><path class="cls-7" d="M34.5287,7.8432,33.3775,7.766a.0144.0144,0,0,0-.002.0287l1.1513.0773a.0144.0144,0,0,0,.0019-.0288Z"/><g class="cls-5"><path class="cls-48" d="M33.66,2.1951,34.476,3.946a.0144.0144,0,0,0,.0261-.0122L33.6858,2.183a.0144.0144,0,0,0-.0261.0121Z"/></g><path class="cls-7" d="M33.4124,6.5493l-.05,1.23a.0144.0144,0,1,0,.0288.0012h0l.05-1.2305a.0144.0144,0,0,0-.0288-.0011Z"/><g class="cls-5"><path class="cls-49" d="M40.0653,7.6712l-1.56-1.1359a.0144.0144,0,1,0-.0169.0232l1.56,1.136a.0144.0144,0,0,0,.0169-.0233Z"/></g><g class="cls-5"><path class="cls-50" d="M39.5572,5.7417l-.64,2.7439a.0144.0144,0,0,0,.028.0065h0l.64-2.7439a.0144.0144,0,0,0-.0281-.0065Z"/></g><path class="cls-7" d="M36.0656,8.92l-1.44-.3914a.0144.0144,0,0,0-.0076.0278l1.4405.3914a.0144.0144,0,0,0,.0076-.0278Z"/><path class="cls-7" d="M37.5494,8.9026l-1.4877.017a.0144.0144,0,1,0,0,.0288l1.4877-.017a.0144.0144,0,1,0,0-.0288Z"/><g class="cls-5"><path class="cls-51" d="M35.3908,2.7968l-1.7132-.6213a.0144.0144,0,0,0-.01.0271l1.7132.6213a.0144.0144,0,0,0,.01-.0271Z"/></g><g class="cls-5"><path class="cls-8" d="M40.3381,4.8617l-1.229-1.903a.0144.0144,0,0,0-.0242.0156l1.229,1.903a.0144.0144,0,0,0,.0242-.0156Z"/></g><path class="cls-7" d="M37.4949,1.439l-1.0785.4964a.0144.0144,0,0,0,.0121.0261l1.0784-.4963a.0144.0144,0,1,0-.012-.0262Z"/><path class="cls-7" d="M34.6288,8.53,33.384,7.7681a.0144.0144,0,0,0-.015.0245l1.2448.7623a.0144.0144,0,1,0,.015-.0246Z"/><path class="cls-7" d="M32.6554,4.9005l.1429,1.4973a.0144.0144,0,0,0,.0286-.0028L32.684,4.8978a.0144.0144,0,0,0-.0286.0027Z"/><g class="cls-5"><path class="cls-52" d="M38.9292,8.4746,36.06,8.92a.0144.0144,0,0,0,.0044.0285h0l2.87-.4451a.0144.0144,0,0,0-.0044-.0285Z"/></g><g class="cls-5"><path class="cls-13" d="M39.1069,2.956,37.5108,1.4416a.0144.0144,0,1,0-.02.0209l1.5961,1.5144a.0143.0143,0,0,0,.02-.0009A.0145.0145,0,0,0,39.1069,2.956Z"/></g><g class="cls-5"><path class="cls-53" d="M40.0708,7.6794l-.4856-1.9379a.0144.0144,0,1,0-.0279.007l.4856,1.9379a.0144.0144,0,0,0,.0279-.007Z"/></g><path class="cls-7" d="M32.7993,6.4018l.5639,1.384a.0144.0144,0,0,0,.0266-.0109L32.8259,6.391a.0144.0144,0,0,0-.0266.0108Z"/><path class="cls-7" d="M38.9271,8.4751l-1.3818.4282a.0144.0144,0,1,0,.0085.0275h0l1.3819-.4282a.0144.0144,0,1,0-.0086-.0275Z"/><g class="cls-5"><path class="cls-54" d="M32.95,3.444l-.1515,2.9517a.0144.0144,0,1,0,.0288.0014l.1515-2.9517A.0144.0144,0,0,0,32.95,3.444Z"/></g><g class="cls-5"><path class="cls-55" d="M34.7181,1.2834l.6545,1.5326a.0145.0145,0,0,0,.0189.0076.0143.0143,0,0,0,.0076-.0189l-.6546-1.5326a.0144.0144,0,0,0-.0264.0113Z"/></g><path class="cls-7" d="M36.0621,8.92l-1.7543-.0308a.0144.0144,0,0,0-.0005.0288h0l1.7542.0308a.0144.0144,0,0,0,.0006-.0288Z"/><path class="cls-7" d="M32.95,3.4418l-.2943,1.4545a.0144.0144,0,0,0,.0282.0057l.2944-1.4544a.0144.0144,0,0,0-.0283-.0058Z"/><g class="cls-5"><path class="cls-56" d="M35.5275,9.628,34.54,7.8506a.0143.0143,0,0,0-.02-.0056.0145.0145,0,0,0-.0056.02l.9872,1.7773a.0144.0144,0,0,0,.0252-.0139Z"/></g><path class="cls-7" d="M34.3184,8.9126l.3138-.3605a.0144.0144,0,0,0-.0218-.0189l-.3137.3605a.0144.0144,0,0,0,.0217.0189Z"/><path class="cls-7" d="M39.7085,2.5463l-.62.4082a.0144.0144,0,0,0,.0159.024l.62-.4081a.0144.0144,0,0,0-.0159-.0241Z"/><path class="cls-7" d="M32.8028,6.3858l-.3487.322a.0144.0144,0,0,0,.02.0211h0l.3488-.3219a.0144.0144,0,0,0-.02-.0212Z"/><path class="cls-7" d="M34.3186,8.8939l-.931-1.1228a.0145.0145,0,0,0-.02-.0016.0144.0144,0,0,0-.0019.02l.9311,1.1228a.0144.0144,0,1,0,.0221-.0184Z"/><path class="cls-7" d="M32.6554,4.8975,32.45,6.7167a.0144.0144,0,0,0,.0286.0033l.2059-1.8192a.0144.0144,0,0,0-.0286-.0033Z"/><g class="cls-5"><path class="cls-57" d="M31.9888,5.4729l1.4293,1.0884a.0144.0144,0,0,0,.0174-.0229L32.0062,5.45a.0144.0144,0,0,0-.0174.0229Z"/></g><g class="cls-5"><path class="cls-58" d="M40.0505,7.67,37.5432,8.9041a.0144.0144,0,0,0,.0127.0259l2.5073-1.2342a.0144.0144,0,0,0-.0127-.0258Z"/></g><g class="cls-5"><path class="cls-59" d="M33.6592,2.1841l-1.003,2.71a.0144.0144,0,1,0,.027.01h0l1.003-2.71a.0144.0144,0,0,0-.027-.01Z"/></g><path class="cls-7" d="M35.5263,9.6438l.5469-.701a.0144.0144,0,0,0-.0227-.0177l-.547.701a.0144.0144,0,0,0,.0228.0177Z"/><g class="cls-5"><path class="cls-60" d="M40.797,6.5607,39.5793,5.733a.0144.0144,0,0,0-.0162.0239l1.2177.8276a.0144.0144,0,0,0,.0162-.0238Z"/></g><g class="cls-5"><path class="cls-61" d="M36.4278,1.9351l-1.6912-.6708a.0144.0144,0,0,0-.0106.0268l1.6912.6707a.0144.0144,0,0,0,.0106-.0267Z"/></g><path class="cls-7" d="M32.4529,6.7277l.9127,1.062a.0144.0144,0,1,0,.0218-.0187l-.9126-1.062a.0144.0144,0,0,0-.0219.0187Z"/><g class="cls-5"><path class="cls-62" d="M36.0627,8.92l-2.3733-.1512a.0144.0144,0,0,0-.0018.0287l2.3733.1513a.0144.0144,0,0,0,.0018-.0288Z"/></g><path class="cls-7" d="M35.526,9.6258l-.8935-1.0923a.0146.0146,0,0,0-.02-.0016.0144.0144,0,0,0-.0019.02l.8936,1.0924a.0144.0144,0,0,0,.0222-.0183Z"/><g class="cls-5"><path class="cls-63" d="M40.6681,3.9957,39.105,2.9545a.0144.0144,0,1,0-.016.024L40.6522,4.02a.0144.0144,0,0,0,.0159-.024Z"/></g><g class="cls-5"><path class="cls-64" d="M37.5448,8.9035,35.51,9.6214a.0144.0144,0,1,0,.01.0271l2.0347-.7179a.0144.0144,0,1,0-.01-.0271Z"/></g><path class="cls-7" d="M33.66,2.182l-.7087,1.2556a.0144.0144,0,0,0,.0251.0142l.7087-1.2557A.0144.0144,0,1,0,33.66,2.182Z"/><g class="cls-5"><path class="cls-65" d="M40.3117,4.8681l-.2692,2.8134a.0144.0144,0,0,0,.0287.0027L40.34,4.8708a.0144.0144,0,0,0-.0286-.0027Z"/></g><g class="cls-5"><path class="cls-66" d="M39.7025,2.562l.61,2.3112a.0144.0144,0,1,0,.0278-.0074L39.73,2.5547a.0144.0144,0,1,0-.0279.0073Z"/></g><g class="cls-5"><path class="cls-67" d="M38.4945,1.4034l.589,1.5682a.0144.0144,0,1,0,.0269-.01l-.5889-1.5681a.0144.0144,0,1,0-.027.01Z"/></g><path class="cls-7" d="M40.0485,7.6712l-1.1255.8059a.0144.0144,0,0,0,.0168.0234l1.1254-.8059a.0144.0144,0,0,0-.0167-.0234Z"/><g class="cls-5"><path class="cls-68" d="M39.7229,2.5455,37.5073,1.4392a.0144.0144,0,0,0-.0128.0258L39.71,2.5712a.0144.0144,0,0,0,.0129-.0257Z"/></g><path class="cls-7" d="M33.7023,8.7785,33.39,7.7761a.0143.0143,0,1,0-.0274.0085h0l.312,1.0024a.0144.0144,0,0,0,.0275-.0085Z"/><path class="cls-7" d="M31.9867,5.4709l.815.935a.0145.0145,0,0,0,.0218-.019l-.8151-.9349a.0144.0144,0,1,0-.0217.0189Z"/><path class="cls-7" d="M40.6467,4.0025l-.3342.8618a.0144.0144,0,0,0,.0269.01l.3342-.8618a.0144.0144,0,0,0-.0269-.01Z"/><path class="cls-7" d="M32.6605,4.8881l-.6722.5623a.0144.0144,0,0,0,.0185.0221h0l.6721-.5623a.0144.0144,0,0,0-.0184-.0221Z"/><path class="cls-7" d="M32.5252,7.4257l.8456.3679a.0144.0144,0,0,0,.0114-.0265l-.8455-.3678a.0145.0145,0,0,0-.019.0075.0143.0143,0,0,0,.0075.0189Z"/><g class="cls-5"><path class="cls-69" d="M36.8835,9.867l-.8108-.9424a.0144.0144,0,0,0-.0218.0188h0l.8108.9424a.0144.0144,0,1,0,.0218-.0188Z"/></g><g class="cls-5"><path class="cls-70" d="M36.0193.8363l.39,1.1169a.0144.0144,0,0,0,.0271-.01L36.0465.8268a.0144.0144,0,0,0-.0272.01Z"/></g><g class="cls-5"><path class="cls-71" d="M34.72,1.2686l-1.7672,2.167a.0144.0144,0,0,0,.0223.0182l1.7673-2.167a.0144.0144,0,0,0-.0224-.0182Z"/></g><path class="cls-7" d="M33.0132,8.2194l.3742-.43a.0144.0144,0,0,0-.0218-.0189l-.3741.43a.0144.0144,0,0,0,.0217.019Z"/><path class="cls-7" d="M33.0132,8.2194l.3742-.43a.0144.0144,0,0,0-.0218-.0189l-.3741.43a.0144.0144,0,0,0,.0217.019Z"/><g class="cls-5"><path class="cls-72" d="M36.8844,9.8847l.677-.9594a.0144.0144,0,0,0-.0236-.0166l-.677.9594a.0144.0144,0,0,0,.0236.0166Z"/></g><path class="cls-7" d="M35.5223,9.6226,34.315,8.8908a.0144.0144,0,0,0-.0149.0247h0l1.2073.7318a.0144.0144,0,0,0,.0149-.0247Z"/><g class="cls-5"><path class="cls-73" d="M32.9511,3.4385l-.9666,2.0168a.0144.0144,0,0,0,.026.0124l.9666-2.0168a.0144.0144,0,1,0-.026-.0124Z"/></g><g class="cls-5"><path class="cls-74" d="M37.5018,1.4377l-2.77-.1744a.0144.0144,0,1,0-.0018.0288h0l2.77.1744a.0144.0144,0,0,0,.0018-.0288Z"/></g><path class="cls-7" d="M34.31,8.889l-.619-.12a.0144.0144,0,0,0-.0055.0283l.619.12A.0144.0144,0,0,0,34.31,8.889Z"/><g class="cls-5"><path class="cls-33" d="M40.8028,6.5688,40.34,4.8657a.0144.0144,0,0,0-.0278.0075h0l.4629,1.7032a.0144.0144,0,0,0,.0278-.0076Z"/></g><path class="cls-7" d="M38.5072,1.384,37.5,1.4377a.0144.0144,0,0,0,.0015.0288l1.0072-.0538a.0144.0144,0,1,0-.0016-.0287Z"/><path class="cls-7" d="M32.45,6.72l.0671.6942a.0144.0144,0,0,0,.0287-.0028l-.0671-.6942A.0144.0144,0,0,0,32.45,6.72Z"/><g class="cls-5"><path class="cls-75" d="M38.9234,8.4769,36.8645,9.8645a.0144.0144,0,0,0,.0161.0239h0L38.94,8.5007a.0144.0144,0,1,0-.0161-.0238Z"/></g><path class="cls-7" d="M34.7219,1.2668l-1.0586.9113a.0144.0144,0,0,0,.0188.0219l1.0586-.9114a.0144.0144,0,1,0-.0188-.0218Z"/><g class="cls-5"><path class="cls-76" d="M34.369,9.429l.2661-.8822a.0144.0144,0,0,0-.0276-.0083l-.2661.8822a.0144.0144,0,0,0,.0276.0083Z"/></g><path class="cls-7" d="M31.984,5.4665,32.45,6.7233a.0144.0144,0,1,0,.027-.01h0L32.011,5.4565a.0144.0144,0,0,0-.027.01Z"/><g class="cls-5"><path class="cls-77" d="M32.044,4.155l.6146.7533a.0144.0144,0,0,0,.0223-.0183l-.6146-.7532a.0144.0144,0,1,0-.0223.0182Z"/></g><path class="cls-7" d="M40.6722,4l-.9437-1.4494a.0144.0144,0,0,0-.0241.0157l.9437,1.4494A.0144.0144,0,0,0,40.6722,4Z"/><g class="cls-5"><path class="cls-78" d="M38.2358,9.5644,37.56,8.9067a.0144.0144,0,1,0-.02.0207h0l.6762.6576a.0144.0144,0,1,0,.02-.0206Z"/></g><path class="cls-7" d="M35.521,9.6219,33.6946,8.77a.0144.0144,0,0,0-.0122.0261l1.8264.8522a.0144.0144,0,0,0,.0122-.0261Z"/><path class="cls-7" d="M39.7264,2.5479l-1.2084-1.16a.0144.0144,0,0,0-.02.0208l1.2085,1.16a.0144.0144,0,0,0,.02-.0208Z"/><g class="cls-5"><path class="cls-41" d="M37.5065,1.4388,36.0385.8182a.0144.0144,0,0,0-.0112.0266l1.468.6206a.0144.0144,0,0,0,.0112-.0266Z"/></g><g class="cls-5"><path class="cls-79" d="M32.9553,3.4333l-.909.7012a.0142.0142,0,0,0-.0026.02.0145.0145,0,0,0,.02.0027l.909-.7012a.0144.0144,0,1,0-.0176-.0228Z"/></g><g class="cls-5"><path class="cls-80" d="M32.1212,6.7844l.6982-.3753a.0144.0144,0,0,0-.0136-.0254l-.6982.3754a.0144.0144,0,1,0,.0136.0253Z"/></g><path class="cls-7" d="M40.7769,6.5646l-.7321,1.11a.0144.0144,0,0,0,.0241.0159l.732-1.11a.0144.0144,0,1,0-.024-.0159Z"/><g class="cls-5"><path class="cls-81" d="M41.0271,5.26l-.6939-.403a.0144.0144,0,0,0-.0144.0249l.6939.403a.0144.0144,0,0,0,.0144-.0249Z"/></g><path class="cls-7" d="M32.9931,8.2209l.6862.5729a.0144.0144,0,0,0,.0185-.0221l-.6862-.5729a.0144.0144,0,0,0-.0185.0221Z"/><path class="cls-7" d="M31.9836,5.4653l.5334,1.951a.0144.0144,0,0,0,.0278-.0076l-.5334-1.951a.0144.0144,0,1,0-.0278.0076Z"/><g class="cls-5"><path class="cls-82" d="M38.2378,9.5825l.7057-1.0859a.0144.0144,0,0,0-.0242-.0156l-.7056,1.0858a.0144.0144,0,0,0,.0241.0157Z"/></g><path class="cls-7" d="M32.5185,7.42l.4714.7973a.0144.0144,0,0,0,.0249-.0146l-.4715-.7974a.0144.0144,0,1,0-.0248.0147Z"/><path class="cls-7" d="M34.37,9.4235l-.0476-.5217a.0144.0144,0,0,0-.0287.0027l.0477.5216a.0144.0144,0,0,0,.0286-.0026Z"/><path class="cls-7" d="M36.8751,9.8622l-1.3577-.2414a.0144.0144,0,0,0-.005.0283l1.3577.2415a.0144.0144,0,0,0,.005-.0284Z"/><g class="cls-5"><path class="cls-83" d="M40.6458,4.0084l.1287,2.5649a.0144.0144,0,0,0,.0288-.0014L40.6745,4.007a.0144.0144,0,0,0-.0287.0014Z"/></g><g class="cls-5"><path class="cls-84" d="M32.0409,4.1481,32.45,6.7206a.0144.0144,0,1,0,.0285-.0045l-.4088-2.5725a.0144.0144,0,1,0-.0284.0045Z"/></g><g class="cls-5"><path class="cls-85" d="M33.6616,2.18,32.044,4.1367a.0144.0144,0,1,0,.0222.0183l1.6176-1.9568a.0144.0144,0,1,0-.0222-.0183Z"/></g><g class="cls-5"><path class="cls-86" d="M37.4171.93l.07.5239a.0144.0144,0,1,0,.0285-.0038L37.4456.9263A.0144.0144,0,0,0,37.4171.93Z"/></g><g class="cls-5"><path class="cls-87" d="M32.6473,2.9376l.3044.5144a.0144.0144,0,0,0,.0248-.0147l-.3045-.5144a.0144.0144,0,1,0-.0247.0147Z"/></g><path class="cls-7" d="M32.1166,6.786l.3494-.0534a.0144.0144,0,0,0-.0043-.0285l-.3495.0534a.0144.0144,0,0,0,.0044.0285Z"/><path class="cls-7" d="M39.9755,2.4514l-.2638.0934a.0144.0144,0,0,0,.01.0271l.2638-.0933a.0144.0144,0,0,0-.01-.0272Z"/><g class="cls-5"><path class="cls-88" d="M39.4109,8.7273l-.4727-.2512a.0144.0144,0,0,0-.0136.0254h0l.4728.2513a.0144.0144,0,0,0,.0135-.0255Z"/></g><path class="cls-7" d="M36.0282.8179l-1.3016.4462a.0144.0144,0,0,0,.0094.0272L36.0376.8451a.0144.0144,0,0,0-.0094-.0272Z"/><g class="cls-5"><path class="cls-89" d="M33.0226,8.3315l1.279.5847a.0143.0143,0,0,0,.0119-.0261l-1.279-.5848a.0144.0144,0,0,0-.0119.0262Z"/></g><path class="cls-7" d="M35.5175,9.6208l-1.16-.21a.0144.0144,0,0,0-.0052.0284h0l1.16.21a.0144.0144,0,1,0,.0052-.0283Z"/><g class="cls-5"><path class="cls-90" d="M38.5112,1.3843,36.0361.8175A.0144.0144,0,0,0,36.03.8456l2.4751.5668a.0144.0144,0,0,0,.0064-.0281Z"/></g><path class="cls-7" d="M34.3652,9.4144l-.6667-.642a.0144.0144,0,1,0-.02.0207l.6667.6421a.0144.0144,0,0,0,.02-.0208Z"/><g class="cls-5"><path class="cls-91" d="M38.2254,9.56l-2.7108.06a.0144.0144,0,1,0,.0006.0287l2.7109-.06a.0144.0144,0,1,0-.0007-.0288Z"/></g><path class="cls-7" d="M32.0407,4.1452l-.0576,1.3156a.0144.0144,0,0,0,.0288.0013l.0576-1.3156a.0144.0144,0,0,0-.0288-.0013Z"/><g class="cls-5"><path class="cls-92" d="M33.6642,2.1774l-1.013.7412a.0144.0144,0,0,0,.0169.0233l1.0131-.7412a.0144.0144,0,0,0-.017-.0233Z"/></g><path class="cls-7" d="M41.0337,5.2686l-.36-1.2648a.0144.0144,0,0,0-.0277.0078l.36,1.2648a.0144.0144,0,0,0,.0178.01.0142.0142,0,0,0,.01-.0177Z"/><path class="cls-7" d="M40.4854,3.2631l.1607.7476a.0144.0144,0,0,0,.0281-.006l-.1607-.7477a.0144.0144,0,1,0-.0281.0061Z"/><path class="cls-7" d="M34.3648,9.4141,33.012,8.1992a.0144.0144,0,1,0-.0193.0214h0l1.3529,1.2149a.0144.0144,0,0,0,.0192-.0214Z"/><path class="cls-7" d="M32.1023,6.78l.4165.6408a.0144.0144,0,0,0,.0242-.0157l-.4165-.6408a.0144.0144,0,0,0-.0242.0157Z"/><path class="cls-7" d="M31.9832,5.4628,32.1,6.773a.0144.0144,0,1,0,.0287-.0025h0l-.1169-1.31a.0144.0144,0,1,0-.0287.0026Z"/><g class="cls-5"><path class="cls-93" d="M39.4164,8.7476,40.0691,7.69a.0144.0144,0,1,0-.0245-.0151l-.6527,1.0572a.0144.0144,0,0,0,.0245.0151Z"/></g><path class="cls-7" d="M41.0057,5.27l-.231,1.3a.0144.0144,0,0,0,.0284.005l.231-1.3a.0144.0144,0,0,0-.0284-.005Z"/><path class="cls-7" d="M32.1022,6.7793,32.99,8.2175a.0144.0144,0,0,0,.0245-.0152l-.8879-1.4381a.0144.0144,0,1,0-.0245.0151Z"/><path class="cls-7" d="M33.02,8.33l.66.4643a.0144.0144,0,1,0,.0166-.0235l-.66-.4643A.0144.0144,0,0,0,33.02,8.33Z"/><g class="cls-5"><path class="cls-94" d="M36.8751,9.8622l-2.5174-.4516a.0144.0144,0,0,0-.0051.0284h0l2.5175.4516a.0144.0144,0,1,0,.005-.0284Z"/></g><path class="cls-7" d="M33.0412,8.3115l-.4977-.9059a.0144.0144,0,0,0-.0252.0138l.4976.906a.0144.0144,0,0,0,.0253-.0139Z"/><path class="cls-7" d="M38.5138,1.3852,37.4371.915a.0144.0144,0,0,0-.0115.0264l1.0766.47a.0144.0144,0,0,0,.0116-.0263Z"/><path class="cls-7" d="M38.2226,9.5606,36.87,9.8623a.0144.0144,0,0,0,.0062.0282l1.3532-.3018a.0144.0144,0,0,0-.0063-.0281Z"/><g class="cls-5"><path class="cls-95" d="M33.75,1.9726l-.09.2108a.0143.0143,0,0,0,.0075.0189.0145.0145,0,0,0,.019-.0076h0l.09-.2108a.0144.0144,0,1,0-.0265-.0113Z"/></g><path class="cls-7" d="M33.0425,8.3151l-.0261-.1086a.0144.0144,0,0,0-.028.0068l.0261.1085a.0144.0144,0,0,0,.0174.0106.0142.0142,0,0,0,.0106-.0173Z"/><g class="cls-5"><path class="cls-96" d="M32.6457,2.9266l-.6621,2.5312a.0144.0144,0,0,0,.0278.0073l.6622-2.5312a.0144.0144,0,0,0-.0279-.0073Z"/></g><g class="cls-5"><path class="cls-97" d="M40.2339,7.4482l-.1881.2255a.0144.0144,0,0,0,.0221.0184l.1881-.2255a.0144.0144,0,0,0-.0221-.0184Z"/></g><g class="cls-5"><path class="cls-98" d="M35.3211,9.61l.1909.0394a.0144.0144,0,0,0,.0058-.0283l-.1909-.0393a.0144.0144,0,0,0-.0058.0282Z"/></g><g class="cls-5"><path class="cls-99" d="M40.7768,6.5648,39.392,8.7323a.0144.0144,0,0,0,.0243.0155L40.801,6.58a.0144.0144,0,0,0-.0242-.0155Z"/></g><g class="cls-5"><path class="cls-100" d="M32.0407,4.1462,32.1,6.7721a.0144.0144,0,1,0,.0288-.0007h0l-.0593-2.6259a.0144.0144,0,0,0-.0288.0007Z"/></g><path class="cls-7" d="M37.4324.9138,36.0339.8171a.0144.0144,0,0,0-.002.0288L37.43.9425a.0144.0144,0,0,0,.002-.0287Z"/><path class="cls-7" d="M40.5115,3.2522l-.5191-.7951a.0145.0145,0,0,0-.0242.0158l.5192.795a.0144.0144,0,0,0,.0241-.0157Z"/><g class="cls-5"><path class="cls-101" d="M39.3983,8.7269,36.8667,9.8633a.0144.0144,0,0,0,.0118.0263h0L39.41,8.7532a.0144.0144,0,0,0-.0117-.0263Z"/></g><g class="cls-5"><path class="cls-102" d="M34.7229,1.2661l-.9683.7a.0144.0144,0,0,0,.0169.0233l.9682-.7a.0144.0144,0,0,0-.0168-.0233Z"/></g><path class="cls-7" d="M39.99,2.4546l-.66-.6359a.0144.0144,0,0,0-.02.0207h0l.66.636a.0144.0144,0,0,0,.02-.0208Z"/><g class="cls-5"><path class="cls-103" d="M32.2056,5.9164l.3112,1.4991A.0144.0144,0,0,0,32.545,7.41l-.3113-1.4991a.0144.0144,0,0,0-.0281.0059Z"/></g><g class="cls-5"><path class="cls-104" d="M32.2326,5.9071l-.2222-.452a.0144.0144,0,0,0-.0258.0127l.2221.452a.0144.0144,0,0,0,.0259-.0127Z"/></g><path class="cls-7" d="M32.6468,2.9238l-.6046,1.2156a.0144.0144,0,0,0,.0258.0129l.6045-1.2157a.0144.0144,0,1,0-.0257-.0128Z"/><g class="cls-5"><path class="cls-72" d="M40.2573,7.4649l.5439-.8848a.0144.0144,0,0,0-.0246-.0151l-.5439.8849a.0144.0144,0,0,0,.0246.015Z"/></g><g class="cls-5"><path class="cls-105" d="M36.8752,9.8622l-1.5486-.2808a.0144.0144,0,0,0-.0052.0284l1.5486.2808a.0144.0144,0,0,0,.0052-.0284Z"/></g><path class="cls-7" d="M33.0193,8.33,34.346,9.4359a.0144.0144,0,0,0,.0184-.0221L33.0378,8.3074a.0144.0144,0,0,0-.0185.0221Z"/><g class="cls-5"><path class="cls-106" d="M35.243,1.4176l-.5075-.1537a.0144.0144,0,1,0-.0084.0276h0l.5076.1537a.0144.0144,0,0,0,.0083-.0276Z"/></g><path class="cls-7" d="M32.102,6.7791l.9141,1.5467a.0144.0144,0,0,0,.02.0044.0143.0143,0,0,0,.0049-.0191l-.9141-1.5467a.0144.0144,0,0,0-.0248.0147Z"/><g class="cls-5"><path class="cls-107" d="M40.608,5.888l.1669.688a.0144.0144,0,1,0,.028-.0068l-.1669-.688a.0144.0144,0,0,0-.028.0068Z"/></g><path class="cls-7" d="M40.678,3.9375l.3279,1.3384a.0144.0144,0,0,0,.028-.0068L40.706,3.9307a.0144.0144,0,0,0-.028.0068Z"/><path class="cls-7" d="M39.3958,8.7283l-1.1784.8346a.0144.0144,0,0,0,.0167.0235l1.1784-.8346a.0144.0144,0,1,0-.0167-.0235Z"/><g class="cls-5"><path class="cls-108" d="M36.0264.8187l-2.27,1.1467a.0144.0144,0,0,0,.013.0257l2.27-1.1467a.0144.0144,0,0,0-.013-.0257Z"/></g><path class="cls-7" d="M40.7058,3.93l-.1925-.6741a.0144.0144,0,0,0-.0277.0079l.1925.6741a.0145.0145,0,0,0,.0178.01A.0144.0144,0,0,0,40.7058,3.93Z"/><g class="cls-5"><path class="cls-109" d="M33.49,8.0438l-.4921.1523a.0146.0146,0,0,0-.0091.0183.0144.0144,0,0,0,.0176.0092l.4922-.1523a.0144.0144,0,1,0-.0086-.0275Z"/></g><g class="cls-5"><path class="cls-110" d="M33.7517,1.9693,32.0438,4.1369a.0144.0144,0,1,0,.0226.0179l1.7079-2.1677a.0144.0144,0,0,0-.0226-.0178Z"/></g><path class="cls-7" d="M35.3265,9.5814l-.9688-.1708a.0144.0144,0,0,0-.005.0284h0l.9688.1708a.0144.0144,0,0,0,.005-.0284Z"/><g class="cls-5"><path class="cls-33" d="M32.0408,4.1472l.1645,1.7676a.0144.0144,0,0,0,.0287-.0027l-.1645-1.7676a.0144.0144,0,0,0-.0287.0027Z"/></g><path class="cls-7" d="M39.3262,1.8158l-.5677-.2465a.0143.0143,0,0,0-.0114.0263l.5676.2467a.0144.0144,0,0,0,.0115-.0265Z"/><g class="cls-5"><path class="cls-111" d="M38.2257,9.56l-2.9018.0209a.0144.0144,0,0,0,0,.0288l2.9018-.0209a.0144.0144,0,1,0,0-.0288Z"/></g><g class="cls-5"><path class="cls-112" d="M41.0063,5.2677l-.7749,2.1849a.0144.0144,0,0,0,.0272.01l.7748-2.1849a.0144.0144,0,0,0-.0271-.01Z"/></g><g class="cls-5"><path class="cls-79" d="M36.0243.82l-.7941.6a.0146.0146,0,0,0-.0023.02.0143.0143,0,0,0,.02.0027l.7941-.6A.0144.0144,0,0,0,36.0243.82Z"/></g><g class="cls-5"><path class="cls-113" d="M36.4774,9.24l.3828.6439a.0144.0144,0,0,0,.0248-.0148l-.3828-.6439a.0144.0144,0,0,0-.0248.0148Z"/></g><g class="cls-5"><path class="cls-114" d="M36.9006,1.367l-.86-.5476a.0144.0144,0,0,0-.0155.0243l.86.5476a.0144.0144,0,0,0,.0154-.0243Z"/></g><path class="cls-7" d="M40.6341,5.8925,41.032,5.28a.0144.0144,0,0,0-.0242-.0157l-.3979.6122a.0144.0144,0,0,0,.0242.0157Z"/><path class="cls-7" d="M32.2054,5.9117,32.1,6.77a.0144.0144,0,0,0,.0286.0035l.1052-.8583a.0144.0144,0,0,0-.0285-.0035Z"/><g class="cls-5"><path class="cls-115" d="M35.331,9.583,33.0355,8.3058a.0144.0144,0,1,0-.014.0252h0L35.317,9.6082a.0144.0144,0,0,0,.014-.0252Z"/></g><path class="cls-7" d="M33.7536,1.9673l-1.1034.952a.0144.0144,0,1,0,.0189.0218h0l1.1034-.952a.0144.0144,0,0,0-.0189-.0218Z"/><g class="cls-5"><path class="cls-116" d="M33.4823,8.0652l.8607,1.3673a.0144.0144,0,0,0,.0244-.0154L33.5067,8.05a.0144.0144,0,0,0-.0244.0153Z"/></g><g class="cls-5"><path class="cls-117" d="M32.206,5.9181l.8089,2.4049a.0144.0144,0,1,0,.0273-.0092h0l-.8089-2.4049a.0144.0144,0,1,0-.0273.0092Z"/></g><g class="cls-5"><path class="cls-118" d="M32.6454,2.9281l-.44,2.9833a.0144.0144,0,0,0,.0285.0042l.44-2.9833a.0144.0144,0,0,0-.0285-.0042Z"/></g><path class="cls-7" d="M40.2329,7.45l-.8408,1.2827a.0144.0144,0,0,0,.0241.0157l.8408-1.2826a.0144.0144,0,0,0-.0241-.0158Z"/><g class="cls-5"><path class="cls-119" d="M37.4281.9141l-2.1925.5033a.0144.0144,0,0,0,.0065.0281h0L37.4346.9422a.0144.0144,0,0,0-.0065-.0281Z"/></g><g class="cls-5"><path class="cls-120" d="M36.4885,9.2182l-2.1346.1923a.0144.0144,0,0,0-.0131.0156.0146.0146,0,0,0,.0157.0131l2.1346-.1924a.0144.0144,0,0,0-.0026-.0286Z"/></g><g class="cls-5"><path class="cls-121" d="M33.5043,8.047l-1.38-1.2858a.0144.0144,0,0,0-.02.0211l1.38,1.2858a.0144.0144,0,0,0,.02-.0211Z"/></g><g class="cls-5"><path class="cls-122" d="M38.2285,9.5606l-1.7359-.3422a.0144.0144,0,1,0-.0056.0282l1.736.3422a.0144.0144,0,1,0,.0055-.0282Z"/></g><g class="cls-5"><path class="cls-123" d="M32.8891,4.9255l-.824-.79a.0144.0144,0,1,0-.02.0207l.8239.79a.0144.0144,0,0,0,.02,0A.0146.0146,0,0,0,32.8891,4.9255Z"/></g><path class="cls-7" d="M37.4221.9171l-.5385.451a.0144.0144,0,1,0,.0185.0221l.5385-.451a.0144.0144,0,0,0-.0185-.0221Z"/><path class="cls-7" d="M40.485,4.2417l.2186-.2991a.0144.0144,0,1,0-.0232-.017h0l-.2186.2991a.0144.0144,0,1,0,.0232.017Z"/><path class="cls-7" d="M33.4875,8.045l-.466.2609a.0143.0143,0,0,0-.0053.02.0145.0145,0,0,0,.0194.0055l.466-.2609a.0144.0144,0,0,0-.0141-.0251Z"/><g class="cls-5"><path class="cls-124" d="M32.8658,4.93l-.7647,1.8358a.0144.0144,0,0,0,.0266.0111h0l.7647-1.8358a.0144.0144,0,0,0-.0266-.0111Z"/></g><path class="cls-7" d="M38.7427,1.5722l-.2589.2525a.0144.0144,0,0,0,.02.0207l.2589-.2526a.0144.0144,0,1,0-.02-.0206Z"/><path class="cls-7" d="M40.608,5.8813,40.231,7.454a.0144.0144,0,1,0,.028.0067h0l.377-1.5727a.0144.0144,0,0,0-.028-.0067Z"/><g class="cls-5"><path class="cls-125" d="M37.686,8.3553,38.2125,9.58a.0144.0144,0,0,0,.0265-.0114l-.5265-1.2251a.0144.0144,0,0,0-.0265.0114Z"/></g><path class="cls-7" d="M35.2339,1.4179l-1.4759.5468a.0145.0145,0,0,0-.0085.0185.0144.0144,0,0,0,.0185.0085l1.4759-.5468a.0144.0144,0,0,0-.01-.027Z"/><g class="cls-5"><path class="cls-126" d="M32.6453,2.9318l.22,2.0057a.0144.0144,0,0,0,.0286-.0031L32.674,2.9287a.0144.0144,0,0,0-.0287.0031Z"/></g><g class="cls-5"><path class="cls-127" d="M33.4852,8.0686l1.83,1.538a.0144.0144,0,0,0,.0185-.022l-1.83-1.5381a.0144.0144,0,0,0-.0186.0221Z"/></g><path class="cls-7" d="M40.4591,4.2344l.1486,1.6515a.0144.0144,0,1,0,.0287-.0025l-.1486-1.6515a.0144.0144,0,0,0-.0287.0025Z"/><path class="cls-7" d="M36.4855,9.2187,35.32,9.5819a.0144.0144,0,0,0,.0086.0275l1.1658-.3632a.0144.0144,0,0,0,.0095-.018.0146.0146,0,0,0-.0181-.0095Z"/><g class="cls-5"><path class="cls-128" d="M32.2073,5.9208l1.2748,2.1441a.0144.0144,0,0,0,.0248-.0147L32.232,5.9061a.0144.0144,0,0,0-.0247.0147Z"/></g><g class="cls-5"><path class="cls-129" d="M39.4074,8.726l-1.705-.39a.0144.0144,0,0,0-.0064.0281l1.705.39a.0144.0144,0,0,0,.0064-.0281Z"/></g><g class="cls-5"><path class="cls-130" d="M34.3705,7.415l-1.35.8914a.0144.0144,0,0,0,.0159.024l1.35-.8914a.0144.0144,0,0,0-.0158-.024Z"/></g><path class="cls-7" d="M36.8924,1.3647l-1.654.0523a.0144.0144,0,0,0,.0009.0288h0l1.654-.0523a.0144.0144,0,1,0-.0009-.0288Z"/><g class="cls-5"><path class="cls-131" d="M38.76,7.0589l.6307,1.6862a.0143.0143,0,0,0,.0187.008.0145.0145,0,0,0,.0083-.0181L38.787,7.0488a.0145.0145,0,0,0-.0188-.0079A.0143.0143,0,0,0,38.76,7.0589Z"/></g><path class="cls-7" d="M32.8672,4.9279l-.6595.9775a.0144.0144,0,0,0,.0239.0161l.6594-.9775a.0144.0144,0,0,0-.0238-.0161Z"/><g class="cls-5"><path class="cls-132" d="M37.6925,8.3369l-2.3752,1.246a.0144.0144,0,0,0,.0134.0255l2.3752-1.246a.0144.0144,0,1,0-.0134-.0255Z"/></g><path class="cls-7" d="M40.4785,4.22l-.5666-.2129a.0144.0144,0,0,0-.01.027h0l.5665.2128a.0144.0144,0,1,0,.01-.0269Z"/><g class="cls-5"><path class="cls-133" d="M36.4951,9.2191,33.5,8.0441a.0146.0146,0,0,0-.0186.0085.0144.0144,0,0,0,.008.0183l2.9953,1.175a.0144.0144,0,0,0,.0106-.0268Z"/></g><g class="cls-5"><path class="cls-134" d="M40.24,7.4438l-2.5457.8922a.0144.0144,0,1,0,.01.0272L40.25,7.471a.0144.0144,0,1,0-.0095-.0272Z"/></g><g class="cls-5"><path class="cls-135" d="M34.3652,7.4328l.9456,2.1686a.0144.0144,0,0,0,.0264-.0115l-.9456-2.1686a.0144.0144,0,1,0-.0264.0115Z"/></g><g class="cls-5"><path class="cls-136" d="M39.5333,5.5388l.6982,1.9235a.0144.0144,0,1,0,.027-.01h0L39.56,5.529a.0144.0144,0,0,0-.0271.01Z"/></g><path class="cls-7" d="M38.48,1.8385l.1686.6791a.0144.0144,0,0,0,.028-.0069l-.1686-.6791a.0144.0144,0,0,0-.028.0069Z"/><g class="cls-5"><path class="cls-105" d="M40.2488,7.4435,38.7773,7.04a.0144.0144,0,1,0-.0076.0278l1.4715.4035a.0144.0144,0,0,0,.0076-.0278Z"/></g><g class="cls-5"><path class="cls-137" d="M32.865,4.9387,33.48,8.06a.0144.0144,0,1,0,.0282-.0056h0l-.6154-3.1215a.0144.0144,0,0,0-.017-.0112A.0142.0142,0,0,0,32.865,4.9387Z"/></g><g class="cls-5"><path class="cls-138" d="M33.7488,1.98l.2743,1.9953a.0144.0144,0,1,0,.0285-.0039l-.2743-1.9953a.0144.0144,0,0,0-.0285.0039Z"/></g><g class="cls-5"><path class="cls-139" d="M34.3867,7.4152,32.2279,5.9017a.0144.0144,0,0,0-.0165.0235L34.37,7.4388a.0144.0144,0,1,0,.0166-.0236Z"/></g><path class="cls-7" d="M40.6265,5.871,39.5513,5.52a.0145.0145,0,0,0-.0179.01.0143.0143,0,0,0,.009.0177l1.0752.3508a.0144.0144,0,0,0,.0089-.0274Z"/><g class="cls-5"><path class="cls-140" d="M34.0269,3.9637l-1.8177,1.94a.0144.0144,0,0,0,.021.02l1.8177-1.94a.0144.0144,0,0,0-.021-.02Z"/></g><g class="cls-5"><path class="cls-141" d="M35.55,3.162l-1.779-1.1957a.0144.0144,0,0,0-.0161.0239l1.7791,1.1957a.0144.0144,0,0,0,.016-.0239Z"/></g><g class="cls-5"><path class="cls-142" d="M40.6143,5.8725,38.7658,7.0417a.0144.0144,0,0,0,.0154.0244L40.63,5.8968a.0144.0144,0,1,0-.0154-.0243Z"/></g><g class="cls-5"><path class="cls-143" d="M37.1745,2.6511,35.2466,1.4193a.0144.0144,0,1,0-.0155.0243l1.9278,1.2317a.0144.0144,0,0,0,.0156-.0242Z"/></g><g class="cls-5"><path class="cls-144" d="M35.2258,1.4253,34.0244,3.9674a.0144.0144,0,0,0,.026.0123l1.2015-2.5421a.0144.0144,0,1,0-.0261-.0123Z"/></g><path class="cls-7" d="M37.6908,8.338l-1.21.8829a.0144.0144,0,0,0,.017.0232l1.2094-.8828a.0144.0144,0,0,0-.0169-.0233Z"/><path class="cls-7" d="M34.37,7.4153l-.8838.63a.0144.0144,0,1,0,.0167.0235l.8839-.6306a.0144.0144,0,0,0-.0168-.0234Z"/><path class="cls-7" d="M39.1974,3.3692l.7.6616a.0144.0144,0,0,0,.02-.021h0l-.7-.6615a.0144.0144,0,1,0-.02.0209Z"/><path class="cls-7" d="M36.8788,1.3821l.2738,1.2841a.0144.0144,0,1,0,.0282-.006L36.907,1.3761a.0144.0144,0,0,0-.0282.006Z"/><g class="cls-5"><path class="cls-33" d="M35.2247,1.4339l.3032,1.7425a.0144.0144,0,0,0,.0284-.0049L35.253,1.4289a.0144.0144,0,1,0-.0283.005Z"/></g><path class="cls-7" d="M38.65,2.5219l.5448.8446a.0144.0144,0,1,0,.0242-.0156h0l-.5448-.8446a.0144.0144,0,0,0-.0242.0156Z"/><g class="cls-5"><path class="cls-145" d="M34.369,7.438l2.1115,1.8054a.0144.0144,0,1,0,.0187-.0218L34.3878,7.4161a.0144.0144,0,0,0-.0188.0219Z"/></g><g class="cls-5"><path class="cls-146" d="M38.7635,7.0435,36.48,9.2221a.0142.0142,0,0,0,0,.02.0143.0143,0,0,0,.02.0005l2.2836-2.1786a.0144.0144,0,1,0-.02-.0208Z"/></g><path class="cls-7" d="M39.8928,4.017l-.36,1.5136a.0146.0146,0,0,0,.0107.0174.0144.0144,0,0,0,.0173-.0107h0l.36-1.5137a.0144.0144,0,0,0-.0281-.0066Z"/><g class="cls-5"><path class="cls-147" d="M36.8814,1.3705,35.5306,3.1653a.0143.0143,0,0,0,.0032.02.0145.0145,0,0,0,.02-.0028l1.3508-1.7948a.0144.0144,0,0,0-.023-.0173Z"/></g><g class="cls-5"><path class="cls-148" d="M32.8668,4.9434l1.4993,2.491a.0144.0144,0,0,0,.0247-.0148L32.8914,4.9285a.0144.0144,0,1,0-.0246.0149Z"/></g><path class="cls-7" d="M34.0282,3.9625,32.87,4.9249a.0144.0144,0,0,0,.0184.0221l1.1583-.9624a.0144.0144,0,0,0-.0184-.0221Z"/><g class="cls-5"><path class="cls-149" d="M35.5709,6.4814,33.4859,8.046a.0144.0144,0,0,0-.0029.02.0146.0146,0,0,0,.02.0029l2.085-1.5647a.0144.0144,0,0,0-.0173-.023Z"/></g><g class="cls-5"><path class="cls-150" d="M35.5659,6.4975l.91,2.74a.0144.0144,0,0,0,.0274-.0091h0l-.91-2.74a.0144.0144,0,0,0-.0273.0091Z"/></g><path class="cls-7" d="M38.7624,7.0447,37.6881,8.34a.0144.0144,0,0,0,.0222.0184l1.0742-1.2957a.0144.0144,0,1,0-.0221-.0184Z"/><path class="cls-7" d="M39.534,5.5274l-.7734,1.52a.0144.0144,0,0,0,.0257.0131l.7734-1.52a.0144.0144,0,0,0-.0257-.0131Z"/><g class="cls-5"><path class="cls-151" d="M34.023,3.975l.3411,3.4534a.0144.0144,0,1,0,.0286-.0028l-.341-3.4534a.0144.0144,0,1,0-.0287.0028Z"/></g><path class="cls-7" d="M38.1884,4.2969l1.3487,1.2476a.0144.0144,0,0,0,.02-.0211L38.208,4.2758a.0144.0144,0,0,0-.02.0211Z"/><path class="cls-7" d="M37.1624,2.65,35.5378,3.16a.0144.0144,0,0,0,.0086.0275h0L37.171,2.677a.0145.0145,0,0,0,.009-.0183A.0144.0144,0,0,0,37.1624,2.65Z"/><path class="cls-7" d="M35.5353,3.1612l-1.5047.8a.0145.0145,0,0,0-.0057.02.0143.0143,0,0,0,.0192.0059l1.5048-.8a.0144.0144,0,0,0-.0136-.0254Z"/><g class="cls-5"><path class="cls-152" d="M35.57,6.5038l2.12,1.8567a.0144.0144,0,0,0,.019-.0217l-2.12-1.8567a.0144.0144,0,0,0-.0189.0217Z"/></g><g class="cls-5"><path class="cls-153" d="M38.1841,4.2893l.5753,2.7675a.0144.0144,0,0,0,.0282-.0058l-.5753-2.7676a.0144.0144,0,0,0-.0282.0059Z"/></g><path class="cls-7" d="M37.1545,2.6709l1.0316,1.6232a.0144.0144,0,0,0,.0243-.0155L37.1789,2.6555a.0144.0144,0,1,0-.0244.0154Z"/><g class="cls-5"><path class="cls-154" d="M36.91,5.3917l.7756,2.9616a.0144.0144,0,0,0,.0278-.0073l-.7756-2.9616a.0144.0144,0,0,0-.0278.0073Z"/></g><path class="cls-7" d="M35.5707,6.4816,34.37,7.4157a.0144.0144,0,1,0,.0177.0227l1.2011-.9341a.0144.0144,0,1,0-.0177-.0227Z"/><g class="cls-5"><path class="cls-155" d="M39.5476,5.52l-2.6232-.1458a.0144.0144,0,0,0-.0016.0287l2.6232.1459a.0144.0144,0,0,0,.0016-.0288Z"/></g><g class="cls-5"><path class="cls-156" d="M38.776,7.04l-3.194-.561a.0144.0144,0,0,0-.0049.0284l3.1939.561a.0144.0144,0,1,0,.005-.0284Z"/></g><g class="cls-5"><path class="cls-157" d="M34.0251,3.9811l1.5422,2.5194a.0144.0144,0,1,0,.0245-.0151L34.05,3.9661a.0144.0144,0,0,0-.0245.015Z"/></g><g class="cls-5"><path class="cls-158" d="M38.2038,4.273,35.5477,3.1607a.0144.0144,0,0,0-.0112.0265L38.1926,4.3a.0144.0144,0,0,0,.0112-.0266Z"/></g><g class="cls-5"><path class="cls-127" d="M36.914,5.3988l1.85,1.6658a.0144.0144,0,0,0,.0193-.0214l-1.85-1.6658a.0144.0144,0,0,0-.0192.0214Z"/></g><g class="cls-5"><path class="cls-159" d="M37.1523,2.6619l-.243,2.7249a.0144.0144,0,1,0,.0287.0025l.243-2.7248a.0144.0144,0,0,0-.0287-.0026Z"/></g><g class="cls-5"><path class="cls-160" d="M36.93,5.3751,34.0437,3.9606a.0144.0144,0,0,0-.0127.0259L36.9173,5.401a.0144.0144,0,0,0,.0127-.0259Z"/></g><g class="cls-5"><path class="cls-161" d="M35.5277,3.1741l.0375,3.319a.0144.0144,0,0,0,.0288,0h0l-.0375-3.319a.0144.0144,0,1,0-.0288,0Z"/></g><g class="cls-5"><path class="cls-128" d="M35.53,3.1816l1.3815,2.2141a.0144.0144,0,1,0,.0244-.0153L35.5543,3.1663a.0144.0144,0,1,0-.0244.0153Z"/></g><path class="cls-7" d="M38.1888,4.2754,36.9142,5.3772a.0144.0144,0,0,0,.0188.0217l1.2746-1.1017a.0144.0144,0,1,0-.0188-.0218Z"/><path class="cls-7" d="M36.9145,5.3769,35.57,6.4818a.0144.0144,0,0,0,.0183.0222l1.3441-1.1048a.0144.0144,0,0,0-.0183-.0223Z"/></g></g></svg>